<?xml version="1.0" encoding="utf-8"?>
<!-- Generator: Adobe Illustrator 29.8.4, SVG Export Plug-In . SVG Version: 9.03 Build 0)  -->
<svg version="1.0" id="Layer_1" xmlns="http://www.w3.org/2000/svg" xmlns:xlink="http://www.w3.org/1999/xlink" x="0px" y="0px"
	 viewBox="0 0 778 137" style="enable-background:new 0 0 778 137;" xml:space="preserve">
<style type="text/css">
	.st0{clip-path:url(#SVGID_00000176722509284811075510000017022344590519719553_);}
	.st1{fill:#ED1C24;}
</style>
<g>
	<defs>
		<rect id="SVGID_1_" x="0.6" y="78.7" width="26.1" height="52"/>
	</defs>
	<clipPath id="SVGID_00000163073926851970506900000010396193460842295964_">
		<use xlink:href="#SVGID_1_"  style="overflow:visible;"/>
	</clipPath>
	<g style="clip-path:url(#SVGID_00000163073926851970506900000010396193460842295964_);">
		<path class="st1" d="M0.6,79.8H26v50.7H0.6V79.8z"/>
	</g>
</g>
<path class="st1" d="M52.4,126.7c0,0-0.2-8.4-0.2-9.2c0-1,0.6-1.3,1.4-1.1c0.8,0.1,9,1.9,9,1.9s-0.7-1.9-1.1-3.2
	c-0.5-1.3,0.2-1.4,0.4-1.7c0.2-0.2,9-7.9,9-7.9l-1.3-0.6c-0.8-0.5-0.8-1.1-0.6-1.4c0-0.7,1.4-5.5,1.4-5.5s-3.6,0.8-4.7,0.8
	c-0.6,0.1-0.8-0.2-1.1-0.7c-0.1-0.4-1-2.5-1-2.5s-4.7,4.9-4.7,5.2c-0.8,0.8-1.8,0.1-1.8-1c0.2-0.8,2.4-10.8,2.4-10.8
	s-2.4,1.3-3.2,1.9c-0.8,0.5-1.2,0.5-1.7-0.4c-0.4-1-3.4-6.8-3.4-6.8s-3,5.9-3.4,6.8c-0.5,0.8-1,0.8-1.8,0.4
	c-0.6-0.6-3.1-1.9-3.1-1.9s2.3,10,2.3,10.8c0.2,1.1-0.6,1.8-1.4,1c-0.2-0.2-4.7-5.2-4.7-5.2s-1.1,2.2-1.3,2.5
	c-0.1,0.5-0.4,0.8-1.1,0.7c-0.8,0-4.7-0.8-4.7-0.8s1.6,4.8,1.8,5.5c0,0.4,0.1,1-0.7,1.4l-1.4,0.6c0,0,8.8,7.7,8.8,7.9
	c0.5,0.2,0.8,0.4,0.5,1.7c-0.5,1.3-0.8,3.2-0.8,3.2s7.8-1.8,8.6-1.9c1-0.2,1.8,0.1,1.8,1.1c0,0.8-0.5,9.2-0.5,9.2H52.4z"/>
<path class="st1" d="M76.7,79.8h25.5v50.7H76.7V79.8z"/>
<g>
	<polygon points="145.7,9.2 153.6,9.2 153.6,7.3 145.7,7.3 145.7,2.4 154.6,2.4 154.6,0.5 143.5,0.5 143.5,16.5 145.7,16.5 	"/>
	<path d="M160.5,16.9c1.1,0,2-0.3,2.7-0.9c0.4-0.3,0.7-0.7,0.9-1.1v1.7h1.9V4.9h-2v5.8c0,1.1-0.1,2.1-0.4,2.7
		c-0.5,1.2-1.4,1.9-2.7,1.9c-0.9,0-1.6-0.4-1.9-1.1c-0.2-0.4-0.3-0.9-0.3-1.5V4.8h-2v8c0,1,0.2,1.8,0.5,2.4
		C157.7,16.4,158.8,16.9,160.5,16.9z"/>
	<path d="M176.5,7.4c0.2,0.4,0.3,1,0.3,1.7v7.4h2V9c0-1.2-0.2-2.1-0.5-2.7c-0.6-1.1-1.7-1.7-3.4-1.7c-0.7,0-1.5,0.1-2.1,0.5
		c-0.6,0.3-1.2,0.8-1.8,1.5V4.8h-1.9v11.7h2v-6.2c0-0.8,0-1.4,0.1-1.8c0.1-0.4,0.3-0.8,0.6-1.2c0.4-0.5,0.9-0.8,1.4-1
		c0.3-0.1,0.7-0.1,1.2-0.1C175.5,6.3,176.1,6.6,176.5,7.4z"/>
	<path d="M185.6,17c0.8,0,1.5-0.2,2.2-0.5c0.6-0.3,1.2-0.8,1.6-1.6v1.6h1.8V0.4h-1.9v6c-0.4-0.6-0.8-0.9-1.2-1.2l0-0.1
		c-0.6-0.4-1.4-0.5-2.3-0.5c-1.6,0-2.9,0.6-3.7,1.9c-0.9,1.2-1.3,2.7-1.3,4.4c0,1.8,0.5,3.3,1.4,4.4C183.2,16.4,184.3,17,185.6,17z
		 M183.8,7.5c0.6-0.8,1.4-1.2,2.4-1.2c0.9,0,1.7,0.4,2.3,1.1c0.6,0.7,0.9,1.8,0.9,3.3c0,1.5-0.3,2.6-0.9,3.4s-1.4,1.2-2.3,1.2
		c-1.2,0-2-0.4-2.6-1.3l0,0c-0.5-0.9-0.8-1.9-0.8-3.2C182.9,9.4,183.2,8.3,183.8,7.5z"/>
	<path d="M200.2,16.8c0.9-0.2,1.6-0.6,2.2-1.2c0.3-0.3,0.7-0.8,1-1.3c0.3-0.5,0.4-1,0.5-1.4H202c-0.1,0.5-0.4,1-0.7,1.4
		c-0.6,0.7-1.4,1-2.4,1c-1.1,0-1.9-0.4-2.4-1.1c-0.5-0.7-0.8-1.7-0.8-2.9h8.5c0-1.2-0.1-2.1-0.2-2.6c-0.2-0.8-0.4-1.5-0.8-2.1
		c-0.4-0.6-1-1.1-1.8-1.5l0,0c-0.8-0.4-1.6-0.6-2.4-0.6c-1.6,0-3,0.6-4,1.8c-1,1.2-1.5,2.7-1.5,4.6c0,1.9,0.5,3.4,1.5,4.5
		c1,1.1,2.2,1.6,3.7,1.6C199.2,17,199.8,16.9,200.2,16.8z M196.6,7.3c0.6-0.7,1.4-1,2.3-1c1.3,0,2.2,0.5,2.7,1.4
		c0.3,0.5,0.5,1.2,0.6,2.1h-6.5C195.6,8.8,196,7.9,196.6,7.3z"/>
	<path d="M210.6,17c0.8,0,1.5-0.2,2.2-0.5c0.6-0.3,1.2-0.8,1.6-1.6v1.6h1.8V0.4h-1.9v6c-0.4-0.6-0.8-0.9-1.2-1.2l0-0.1
		c-0.6-0.4-1.4-0.5-2.3-0.5c-1.6,0-2.9,0.6-3.7,1.9c-0.9,1.2-1.3,2.7-1.3,4.4c0,1.8,0.5,3.3,1.4,4.4C208.2,16.4,209.3,17,210.6,17z
		 M208.8,7.5c0.6-0.8,1.4-1.2,2.4-1.2c0.9,0,1.7,0.4,2.3,1.1c0.6,0.7,0.9,1.8,0.9,3.3c0,1.5-0.3,2.6-0.9,3.4
		c-0.6,0.8-1.4,1.2-2.3,1.2c-1.2,0-2-0.4-2.6-1.3l0,0c-0.5-0.9-0.8-1.9-0.8-3.2C207.9,9.4,208.2,8.3,208.8,7.5z"/>
	<path d="M227,15.1c0.4,0.6,0.8,1,1.2,1.2c0.6,0.4,1.4,0.6,2.3,0.6c1.6,0,2.8-0.6,3.7-1.9c0.9-1.2,1.4-2.7,1.4-4.6
		c0-1.9-0.4-3.4-1.4-4.4c-0.9-1-2.1-1.5-3.6-1.5c-0.7,0-1.4,0.2-2,0.5c-0.6,0.3-1.1,0.7-1.5,1.3V0.4h-1.9h0v16.2h1.8V15.1z M228,7.3
		c0.7-0.7,1.5-1,2.4-1c1,0,1.8,0.4,2.4,1.2c0.5,0.8,0.8,1.8,0.8,3.1c0,1.4-0.3,2.5-0.8,3.4h0c-0.5,0.9-1.4,1.3-2.4,1.3
		c-1.4,0-2.4-0.6-2.9-1.9c-0.3-0.7-0.4-1.6-0.4-2.7C227,9.1,227.4,8,228,7.3z"/>
	<path d="M240.4,18.2c-0.2,0.5-0.4,0.8-0.4,0.9c-0.1,0.2-0.3,0.4-0.4,0.5c-0.2,0.1-0.4,0.2-0.8,0.2c-0.1,0-0.3,0-0.4,0
		c-0.2,0-0.4-0.1-0.8-0.2v1.8c0.2,0,0.4,0.1,0.6,0.1c0.2,0,0.4,0,0.6,0c1.2,0,2-0.4,2.4-1c0.5-0.7,1.3-2.5,2.4-5.5
		c0.5-1.3,1.1-2.9,1.8-5c1-2.7,1.6-4.4,1.9-5.2h-2.2v0l-3.2,9.6l-3.2-9.6h-2.3l4.4,12.1C240.8,17.2,240.7,17.6,240.4,18.2z"/>
	<polygon points="490.3,9.2 498.2,9.2 498.2,7.3 490.3,7.3 490.3,2.4 499.3,2.4 499.3,0.5 488.1,0.5 488.1,16.5 490.3,16.5 	"/>
	<rect x="501.4" y="4.9" width="2" height="11.7"/>
	<rect x="501.4" y="0.5" width="2" height="2.3"/>
	<path d="M512.1,4.5c-0.7,0-1.4,0.2-2.1,0.5c-0.6,0.3-1.2,0.8-1.8,1.5V4.8h-1.9v11.7h2v-6.2c0-0.8,0-1.4,0.1-1.8
		c0.1-0.4,0.3-0.8,0.6-1.2c0.4-0.5,0.9-0.8,1.4-1c0.3-0.1,0.7-0.1,1.2-0.1c0.9,0,1.6,0.4,1.9,1.1c0.2,0.4,0.3,1,0.3,1.7v7.4h2V9
		c0-1.2-0.2-2.1-0.5-2.7C514.9,5.1,513.7,4.5,512.1,4.5z"/>
	<path d="M525.1,9.5L525.1,9.5l-3.2,0.4c-1.1,0.1-2,0.5-2.7,1.1c-0.7,0.6-1,1.4-1,2.5c0,1,0.3,1.8,1,2.5c0.7,0.7,1.6,1,2.7,1
		c0.9,0,1.7-0.2,2.5-0.6c0.7-0.4,1.3-0.8,1.7-1.4c0.1,0.5,0.2,0.8,0.3,1.1c0.3,0.5,0.8,0.7,1.5,0.7c0.2,0,0.5,0,0.6,0
		c0.2,0,0.4-0.1,0.7-0.2v-1.5c-0.1,0.1-0.2,0.1-0.3,0.1c-0.1,0-0.2,0-0.3,0c-0.3,0-0.4-0.1-0.5-0.2c0-0.1-0.1-0.3-0.1-0.5V7.8
		c0-1.1-0.5-1.9-1.3-2.5c-0.9-0.5-2-0.8-3.4-0.8c-1.2,0-2.3,0.3-3.2,0.8c-0.9,0.6-1.4,1.6-1.4,3h1.9c0.1-0.6,0.2-1.1,0.5-1.4
		c0.4-0.6,1.2-0.8,2.2-0.8c0.9,0,1.6,0.2,2.1,0.5c0.5,0.3,0.7,0.8,0.7,1.5c0,0.3,0,0.6-0.1,0.8C525.9,9.2,525.6,9.4,525.1,9.5z
		 M526.2,12.2c0,1.2-0.6,2.1-1.7,2.6c-0.7,0.3-1.3,0.5-2,0.5c-0.6,0-1.1-0.2-1.5-0.5l0,0.1c-0.4-0.3-0.6-0.8-0.6-1.4
		c0-0.7,0.3-1.3,0.9-1.6c0.3-0.2,0.9-0.4,1.6-0.5l1.2-0.1c0.4-0.1,0.8-0.1,1.1-0.2c0.4-0.1,0.7-0.3,0.9-0.4V12.2z"/>
	<path d="M533.3,16.5v-6.2c0-0.8,0-1.4,0.1-1.8c0.1-0.4,0.3-0.8,0.6-1.2c0.4-0.5,0.9-0.8,1.4-1c0.3-0.1,0.7-0.1,1.2-0.1
		c0.9,0,1.6,0.4,1.9,1.1c0.2,0.4,0.3,1,0.3,1.7v7.4h2V9c0-1.2-0.2-2.1-0.5-2.7c-0.6-1.1-1.7-1.7-3.4-1.7c-0.7,0-1.4,0.2-2.1,0.5
		c-0.6,0.3-1.2,0.8-1.8,1.5V4.8h-1.9v11.7H533.3z"/>
	<path d="M548.1,16.9c1.4,0,2.5-0.3,3.4-1.1c0.9-0.7,1.4-1.9,1.7-3.4h-1.9c-0.2,0.9-0.5,1.6-1,2.1c-0.5,0.5-1.1,0.8-1.9,0.8
		c-1.1,0-1.9-0.4-2.4-1.2c-0.5-0.8-0.8-1.8-0.8-3c0-1.2,0.2-2.2,0.5-3c0.5-1.2,1.4-1.9,2.7-1.9c0.9,0,1.6,0.3,2,0.7
		c0.4,0.5,0.7,1.1,0.8,1.8h1.9c-0.2-1.6-0.7-2.7-1.5-3.3h0.1c-0.8-0.7-1.9-1-3.3-1c-1.6,0-2.8,0.5-3.8,1.7c-1,1.1-1.5,2.7-1.5,4.8
		c0,1.7,0.4,3.1,1.4,4.2C545.3,16.3,546.6,16.9,548.1,16.9z"/>
	<polygon points="562.2,0.1 559.8,0.1 557.8,3.3 559.3,3.3 	"/>
	<path d="M559.5,17c0.6,0,1.1-0.1,1.6-0.2c0.9-0.2,1.6-0.6,2.2-1.2c0.3-0.3,0.7-0.8,1-1.3c0.3-0.5,0.4-1,0.5-1.4h-1.9
		c-0.1,0.5-0.4,1-0.7,1.4c-0.6,0.7-1.4,1-2.4,1c-1.1,0-1.9-0.4-2.4-1.1c-0.5-0.7-0.8-1.7-0.8-2.9h8.5c0-1.2-0.1-2.1-0.2-2.6
		c-0.2-0.8-0.4-1.5-0.8-2.1c-0.4-0.6-1-1.1-1.8-1.5l0,0c-0.8-0.4-1.6-0.6-2.4-0.6c-1.6,0-3,0.6-4,1.8c-1,1.2-1.5,2.7-1.5,4.6
		c0,1.9,0.5,3.4,1.5,4.5C556.8,16.4,558.1,17,559.5,17z M557.5,7.3c0.6-0.7,1.4-1,2.3-1c1.3,0,2.2,0.5,2.7,1.4
		c0.3,0.5,0.5,1.2,0.6,2.1h-6.5C556.5,8.8,556.9,7.9,557.5,7.3z"/>
	<path d="M575.6,15.2c0.4,0.5,0.8,0.9,1.2,1.1c0.6,0.4,1.4,0.6,2.3,0.6c1.1,0,2.1-0.3,3-1c1.4-1.1,2-2.9,2-5.5
		c0-1.9-0.5-3.4-1.4-4.4s-2-1.5-3.4-1.5c-0.9,0-1.7,0.2-2.4,0.6c-0.5,0.3-0.9,0.7-1.3,1.2V4.9h-1.9v16.4h2V15.2z M576,8.3
		c0.5-1.4,1.5-2.1,2.8-2.1c1.3,0,2.3,0.6,2.8,1.9c0.3,0.7,0.4,1.5,0.4,2.4c0,1.5-0.3,2.7-0.9,3.5c-0.6,0.8-1.4,1.2-2.3,1.2
		c-1.3,0-2.3-0.6-2.8-1.8c-0.3-0.6-0.4-1.4-0.4-2.3C575.6,10,575.7,9.1,576,8.3z"/>
	<path d="M596.1,15.2c-0.3,0-0.4-0.1-0.5-0.2c0-0.1-0.1-0.3-0.1-0.5V7.8c0-1.1-0.5-1.9-1.3-2.5c-0.9-0.5-2-0.8-3.4-0.8
		c-1.2,0-2.3,0.3-3.2,0.8c-0.9,0.6-1.4,1.6-1.4,3h1.9c0.1-0.6,0.2-1.1,0.5-1.4c0.4-0.6,1.2-0.8,2.2-0.8c0.9,0,1.6,0.2,2.1,0.5
		c0.5,0.3,0.7,0.8,0.7,1.5c0,0.3,0,0.6-0.1,0.8c-0.1,0.3-0.4,0.5-0.9,0.6l0-0.1l-3.2,0.5c-1.1,0.1-2,0.5-2.7,1.1
		c-0.7,0.6-1,1.4-1,2.5c0,1,0.3,1.8,1,2.5c0.7,0.7,1.6,1,2.7,1c0.9,0,1.7-0.2,2.5-0.6c0.7-0.4,1.3-0.8,1.7-1.4
		c0.1,0.5,0.2,0.8,0.3,1.1c0.3,0.5,0.8,0.7,1.5,0.7c0.2,0,0.5,0,0.6,0s0.4-0.1,0.7-0.2v-1.5c-0.1,0.1-0.2,0.1-0.3,0.1
		C596.3,15.2,596.2,15.2,596.1,15.2z M593.6,12.2c0,1.2-0.6,2.1-1.7,2.6c-0.7,0.3-1.3,0.5-2,0.5c-0.6,0-1.1-0.2-1.5-0.5l0,0.1
		c-0.4-0.3-0.6-0.8-0.6-1.4c0-0.7,0.3-1.3,0.9-1.6c0.3-0.2,0.9-0.4,1.6-0.5l1.2-0.1c0.4-0.1,0.8-0.1,1.1-0.2
		c0.4-0.1,0.7-0.3,0.9-0.4V12.2z"/>
	<path d="M600.8,16.6V9.8c0-0.9,0.3-1.6,0.8-2.2c0.5-0.7,1.3-1,2.3-1h0.3c0.1,0.1,0.3,0.1,0.3,0.1V4.7c-0.2-0.1-0.5-0.1-0.5-0.1
		h-0.2c-0.8,0-1.5,0.3-2.1,0.8c-0.6,0.6-1,1-1.1,1.4v-2h-1.9v11.8H600.8z"/>
	<rect x="612.1" y="14.2" width="2.3" height="2.4"/>
	<rect x="612.1" y="5" width="2.3" height="2.4"/>
	<rect x="250.8" y="14.2" width="2.3" height="2.4"/>
	<rect x="250.8" y="5" width="2.3" height="2.4"/>
	<path d="M155.7,128.8c-0.3,0-0.6-0.1-0.7-0.2c-0.1-0.2-0.2-0.4-0.2-0.6v-8.6c0-1.4-0.5-2.5-1.6-3.1c-1.1-0.7-2.5-1-4.3-1
		c-1.5,0-2.9,0.4-4,1.1c-1.2,0.7-1.8,2-1.8,3.9h2.3c0.1-0.8,0.3-1.4,0.6-1.8c0.6-0.7,1.5-1.1,2.8-1.1c1.1,0,2,0.2,2.6,0.6
		c0.6,0.4,0.9,1,0.9,1.9c0,0.4-0.1,0.7-0.2,1c-0.2,0.4-0.6,0.7-1.2,0.7l-4,0.5c-1.4,0.2-2.5,0.6-3.4,1.4c-0.9,0.8-1.3,1.8-1.3,3.2
		c0,1.3,0.5,2.3,1.3,3.2c0.9,0.8,2,1.3,3.4,1.3c1.2,0,2.2-0.2,3.2-0.7c1-0.5,1.7-1.1,2.2-1.7c0.1,0.6,0.2,1,0.4,1.4
		c0.4,0.6,1,0.9,1.9,0.9c0.3,0,0.6,0,0.8,0c0.2,0,0.5-0.1,0.9-0.2v-1.9c-0.1,0-0.3,0.1-0.4,0.1C156,128.8,155.8,128.8,155.7,128.8z
		 M152.3,124.9c0,1.5-0.7,2.7-2.1,3.3c-0.8,0.4-1.7,0.6-2.6,0.6c-0.7,0-1.4-0.2-1.9-0.6c-0.5-0.4-0.8-1-0.8-1.7c0-1,0.4-1.7,1.2-2.1
		c0.5-0.3,1.2-0.4,2.1-0.6l1.5-0.2c0.5,0,1-0.1,1.4-0.3c0.5-0.1,0.9-0.3,1.2-0.5V124.9z"/>
	<path d="M166.2,115.2c-1,0-1.8,0.2-2.6,0.6c-0.8,0.4-1.5,1-2.2,1.9v-2.1H159h0v14.9h2.5v-7.8c0-1,0.1-1.7,0.2-2.3
		c0.1-0.5,0.4-1,0.8-1.5c0.5-0.6,1.1-1,1.8-1.2c0.4-0.1,0.9-0.2,1.5-0.2c1.2,0,2,0.5,2.4,1.4c0.3,0.6,0.4,1.3,0.4,2.2v9.4h2.6v-9.6
		c0-1.5-0.2-2.7-0.6-3.5C169.8,115.9,168.3,115.2,166.2,115.2z"/>
	<path d="M184.5,117.4c-0.5-0.7-1.1-1.2-1.5-1.5c-0.8-0.5-1.7-0.7-2.9-0.7c-2.1,0-3.7,0.8-4.8,2.4c-1.1,1.6-1.7,3.5-1.7,5.7
		c0,2.3,0.6,4.2,1.8,5.6c1.2,1.4,2.6,2.1,4.3,2.1c1,0,1.9-0.2,2.7-0.6c0.8-0.4,1.5-1.1,2.1-2v2.1h2.3v-20.6h-2.4V117.4z
		 M183.5,127.3c-0.8,1-1.7,1.5-2.9,1.5c-1.5,0-2.6-0.6-3.3-1.6c-0.7-1.1-1-2.4-1-4c0-1.9,0.4-3.3,1.2-4.3c0.8-1,1.8-1.5,3.1-1.5
		c1.1,0,2.1,0.5,2.8,1.4c0.8,0.9,1.2,2.3,1.2,4.2C184.7,124.9,184.3,126.3,183.5,127.3z"/>
	<path d="M212.1,126.2c-1.1,1.6-2.6,2.4-4.6,2.4c-2.2,0-3.8-0.7-4.9-2.2s-1.7-3.5-1.7-5.9c0-2.9,0.6-5.1,1.8-6.5
		c1.2-1.4,2.8-2.1,4.8-2.1c1.6,0,2.9,0.4,3.8,1.2c0.9,0.8,1.5,1.8,1.8,3.1h2.7c-0.2-1.7-0.9-3.3-2.4-4.7c-1.4-1.4-3.4-2.1-6-2.1
		c-3,0-5.4,1.1-7.1,3.2c-1.6,2-2.4,4.4-2.4,7.5c0,4,1.1,6.9,3.2,8.8c1.6,1.4,3.6,2.2,5.9,2.2c2.7,0,4.9-0.9,6.5-2.6
		c1.3-1.5,2.1-3.3,2.4-5.4h-2.7C213,124.3,212.6,125.4,212.1,126.2z"/>
	<rect x="219.2" y="115.6" width="2.6" height="14.9"/>
	<rect x="219.2" y="109.9" width="2.6" height="2.9"/>
	<path d="M228.6,111.3h-2.5v4.2h-2v2.1h2v9.9c0,1,0.2,1.7,0.6,2.3c0.4,0.6,1.2,0.9,2.4,0.9c0.4,0,0.7,0,1-0.1c0.3,0,0.6-0.1,0.9-0.2
		v-2c-0.2,0-0.5,0-0.5,0h-0.4c-0.4,0-0.8-0.1-1-0.2c-0.4-0.2-0.5-0.5-0.5-1v-9.8h2.4v-2.1h-2.4V111.3z"/>
	<rect x="233.5" y="109.9" width="2.6" height="2.9"/>
	<rect x="233.5" y="115.6" width="2.6" height="14.9"/>
	<polygon points="251,117.6 251,115.5 239.4,115.5 239.4,117.7 247.6,117.7 238.8,128.4 238.8,130.4 251.3,130.4 251.3,128.2 
		242.2,128.2 	"/>
	<path d="M266.6,120.5c-0.2-1-0.5-1.9-1-2.6c-0.5-0.8-1.3-1.4-2.3-1.9c-1-0.5-2-0.8-3-0.8c-2.1,0-3.8,0.7-5.1,2.2
		c-1.3,1.5-1.9,3.4-1.9,5.9c0,2.4,0.6,4.3,1.9,5.7c1.3,1.4,2.8,2,4.7,2c0.8,0,1.4-0.1,2-0.2c1.1-0.3,2-0.8,2.8-1.5
		c0.5-0.4,0.9-1,1.2-1.7c0.4-0.7,0.6-1.3,0.6-1.8h-2.5c-0.2,0.7-0.5,1.3-0.9,1.8c-0.8,0.9-1.8,1.3-3.1,1.3c-1.4,0-2.4-0.4-3.1-1.4
		c-0.7-0.9-1-2.1-1.1-3.7h10.8C266.9,122.3,266.8,121.2,266.6,120.5z M256,121.8c0-1.3,0.5-2.3,1.2-3.2c0.8-0.8,1.7-1.2,2.9-1.2
		c1.6,0,2.8,0.6,3.4,1.8c0.4,0.6,0.6,1.5,0.7,2.6H256z"/>
	<path d="M277.3,115.2c-1,0-1.8,0.2-2.6,0.6c-0.8,0.4-1.5,1-2.2,1.9v-2.1H270h0v14.9h2.5v-7.8c0-1,0.1-1.7,0.2-2.3
		c0.1-0.5,0.4-1,0.8-1.5c0.5-0.6,1.1-1,1.8-1.2c0.4-0.1,0.9-0.2,1.5-0.2c1.2,0,2,0.5,2.4,1.4c0.3,0.6,0.4,1.3,0.4,2.2v9.4h2.6v-9.6
		c0-1.5-0.2-2.7-0.6-3.5C280.8,115.9,279.4,115.2,277.3,115.2z"/>
	<path d="M296,123.1c-0.6-0.4-1.9-0.8-3.7-1.3l-1.7-0.4c-0.7-0.2-1.3-0.4-1.7-0.6c-0.7-0.4-1-0.9-1-1.6c0-0.6,0.3-1.1,0.8-1.4
		c0.5-0.4,1.2-0.5,2.2-0.5c1.5,0,2.5,0.3,3.1,1c0.3,0.5,0.6,1,0.6,1.5h2.4c0-1-0.3-1.9-0.9-2.7c-1-1.3-2.6-2-4.9-2
		c-1.7,0-3.1,0.4-4.2,1.3c-1,0.9-1.6,2-1.6,3.4c0,1.2,0.5,2.2,1.6,2.8c0.6,0.4,1.6,0.8,2.9,1.1l2,0.5c1.1,0.3,1.8,0.5,2.2,0.7
		c0.6,0.3,0.9,0.8,0.9,1.5c0,0.8-0.4,1.5-1.1,1.9c-0.7,0.4-1.5,0.6-2.5,0.6c-1.6,0-2.7-0.4-3.4-1.2c-0.3-0.5-0.6-1.1-0.6-1.9H285
		c0.1,1.5,0.6,2.8,1.5,3.8c0.9,1,2.5,1.5,4.8,1.5c2.1,0,3.6-0.5,4.7-1.5s1.5-2.1,1.5-3.4C297.5,124.8,297,123.7,296,123.1z"/>
	<path d="M307.3,115.1c-1.2,0-2.2,0.3-3,0.8c-0.5,0.3-1,0.8-1.6,1.6v-7.7h-2.5h0v20.6h2.5v-7.9c0-2,0.4-3.4,1.3-4.1
		c0.8-0.7,1.8-1.1,2.8-1.1c1.3,0,2.1,0.4,2.6,1.2c0.3,0.5,0.4,1.3,0.4,2.4v9.4h2.6v-9.6c0-1.5-0.2-2.6-0.6-3.5
		C310.9,115.9,309.4,115.1,307.3,115.1z"/>
	<rect x="316" y="109.9" width="2.6" height="2.9"/>
	<rect x="316" y="115.6" width="2.6" height="14.9"/>
	<path d="M359.6,126.2c-1.1,1.6-2.6,2.4-4.6,2.4c-2.2,0-3.8-0.7-4.9-2.2s-1.7-3.5-1.7-5.9c0-2.9,0.6-5.1,1.8-6.5
		c1.2-1.4,2.8-2.1,4.8-2.1c1.6,0,2.9,0.4,3.8,1.2c0.9,0.8,1.5,1.8,1.8,3.1h2.7c-0.2-1.7-1-3.3-2.4-4.7s-3.4-2.1-6-2.1
		c-3,0-5.4,1.1-7,3.2c-1.6,2-2.4,4.4-2.4,7.5c0,4,1.1,6.9,3.2,8.8c1.6,1.4,3.6,2.2,5.9,2.2c2.7,0,4.9-0.9,6.5-2.6
		c1.3-1.5,2.1-3.3,2.4-5.4h-2.7C360.6,124.3,360.2,125.4,359.6,126.2z"/>
	<path d="M379.4,128.8c-0.3,0-0.6-0.1-0.7-0.2c-0.1-0.2-0.2-0.4-0.2-0.6v-8.6c0-1.4-0.5-2.5-1.6-3.1c-1.1-0.7-2.5-1-4.3-1
		c-1.5,0-2.8,0.4-4,1.1c-1.2,0.7-1.8,2-1.8,3.9h2.3c0.1-0.8,0.3-1.4,0.6-1.8c0.6-0.7,1.5-1.1,2.8-1.1c1.1,0,2,0.2,2.6,0.6
		c0.6,0.4,0.9,1,0.9,1.9c0,0.4-0.1,0.7-0.2,1c-0.2,0.4-0.6,0.7-1.2,0.7l-4,0.5c-1.4,0.2-2.5,0.6-3.4,1.4c-0.9,0.8-1.3,1.8-1.3,3.2
		c0,1.3,0.5,2.3,1.3,3.2c0.9,0.8,2,1.3,3.4,1.3c1.2,0,2.2-0.2,3.2-0.7c1-0.5,1.7-1.1,2.2-1.7c0.1,0.6,0.2,1,0.4,1.4
		c0.4,0.6,1,0.9,1.9,0.9c0.3,0,0.6,0,0.8,0c0.2,0,0.5-0.1,0.9-0.2v-1.9c-0.1,0-0.3,0.1-0.4,0.1C379.7,128.8,379.5,128.8,379.4,128.8
		z M376,124.9c0,1.5-0.7,2.7-2.1,3.3c-0.8,0.4-1.7,0.6-2.6,0.6c-0.7,0-1.4-0.2-1.9-0.6c-0.5-0.4-0.8-1-0.8-1.7c0-1,0.4-1.7,1.2-2.1
		c0.5-0.3,1.2-0.4,2.1-0.6l1.5-0.2c0.5,0,1-0.1,1.4-0.3c0.5-0.1,0.9-0.3,1.2-0.5V124.9z"/>
	<path d="M389.9,115.2c-1,0-1.8,0.2-2.6,0.6c-0.8,0.4-1.6,1-2.3,1.9v-2.1h-2.4v14.9h2.5v-7.8c0-1,0.1-1.7,0.2-2.3
		c0.1-0.5,0.4-1,0.8-1.5c0.5-0.6,1.1-1,1.8-1.2c0.4-0.1,0.9-0.2,1.5-0.2c1.2,0,2,0.5,2.4,1.4c0.3,0.6,0.4,1.3,0.4,2.2v9.4h2.6v-9.6
		c0-1.5-0.2-2.7-0.6-3.5C393.5,115.9,392.1,115.2,389.9,115.2z"/>
	<path d="M411.2,128.8c-0.3,0-0.6-0.1-0.7-0.2c-0.1-0.2-0.2-0.4-0.2-0.6v-8.6c0-1.4-0.5-2.5-1.6-3.1c-1.1-0.7-2.5-1-4.3-1
		c-1.5,0-2.8,0.4-4,1.1c-1.2,0.7-1.8,2-1.8,3.9h2.3c0.1-0.8,0.3-1.4,0.6-1.8c0.6-0.7,1.5-1.1,2.8-1.1c1.1,0,2,0.2,2.6,0.6
		c0.6,0.4,0.9,1,0.9,1.9c0,0.4-0.1,0.7-0.2,1c-0.2,0.4-0.6,0.7-1.2,0.7l-4,0.5c-1.4,0.2-2.5,0.6-3.4,1.4c-0.9,0.8-1.3,1.8-1.3,3.2
		c0,1.3,0.5,2.3,1.3,3.2c0.9,0.8,2,1.3,3.4,1.3c1.2,0,2.2-0.2,3.2-0.7c1-0.5,1.7-1.1,2.2-1.7c0.1,0.6,0.2,1,0.4,1.4
		c0.4,0.6,1,0.9,1.9,0.9c0.3,0,0.6,0,0.8,0c0.2,0,0.5-0.1,0.9-0.2v-1.9c-0.1,0-0.3,0.1-0.4,0.1C411.4,128.8,411.3,128.8,411.2,128.8
		z M407.8,124.9c0,1.5-0.7,2.7-2.1,3.3c-0.8,0.4-1.7,0.6-2.6,0.6c-0.7,0-1.4-0.2-1.9-0.6c-0.5-0.4-0.8-1-0.8-1.7
		c0-1,0.4-1.7,1.2-2.1c0.5-0.3,1.2-0.4,2.1-0.6l1.5-0.2c0.5,0,1-0.1,1.4-0.3c0.5-0.1,0.9-0.3,1.2-0.5V124.9z"/>
	<path d="M424.1,117.4c-0.6-0.7-1.1-1.2-1.5-1.5c-0.8-0.5-1.7-0.7-2.8-0.7c-2.1,0-3.7,0.8-4.8,2.4c-1.1,1.6-1.7,3.5-1.7,5.7
		c0,2.3,0.6,4.2,1.8,5.6c1.2,1.4,2.6,2.1,4.3,2.1c1,0,1.9-0.2,2.7-0.6c0.8-0.4,1.5-1.1,2.1-2v2.1h2.3v-20.6h-2.4V117.4z
		 M423.1,127.3c-0.8,1-1.7,1.5-2.9,1.5c-1.5,0-2.6-0.6-3.3-1.6c-0.7-1.1-1-2.4-1-4c0-1.9,0.4-3.3,1.2-4.3c0.8-1,1.8-1.5,3.1-1.5
		c1.1,0,2.1,0.5,2.8,1.4c0.8,0.9,1.2,2.3,1.2,4.2C424.3,124.9,423.9,126.3,423.1,127.3z"/>
	<path d="M443,128.8c-0.3,0-0.6-0.1-0.7-0.2c-0.1-0.2-0.2-0.4-0.2-0.6v-8.6c0-1.4-0.5-2.5-1.6-3.1c-1.1-0.7-2.5-1-4.3-1
		c-1.5,0-2.8,0.4-4,1.1c-1.2,0.7-1.8,2-1.8,3.9h2.3c0.1-0.8,0.3-1.4,0.6-1.8c0.6-0.7,1.5-1.1,2.8-1.1c1.1,0,2,0.2,2.6,0.6
		c0.6,0.4,0.9,1,0.9,1.9c0,0.4-0.1,0.7-0.2,1c-0.2,0.4-0.6,0.7-1.2,0.7l-4,0.5c-1.4,0.2-2.5,0.6-3.4,1.4c-0.9,0.8-1.3,1.8-1.3,3.2
		c0,1.3,0.5,2.3,1.3,3.2c0.9,0.8,2,1.3,3.4,1.3c1.2,0,2.2-0.2,3.2-0.7c1-0.5,1.7-1.1,2.2-1.7c0.1,0.6,0.2,1,0.4,1.4
		c0.4,0.6,1,0.9,1.9,0.9c0.3,0,0.6,0,0.8,0c0.2,0,0.5-0.1,0.9-0.2v-1.9c-0.1,0-0.3,0.1-0.4,0.1C443.2,128.8,443.1,128.8,443,128.8z
		 M439.6,124.9c0,1.5-0.7,2.7-2.1,3.3c-0.8,0.4-1.7,0.6-2.6,0.6c-0.7,0-1.4-0.2-1.9-0.6c-0.5-0.4-0.8-1-0.8-1.7c0-1,0.4-1.7,1.2-2.1
		c0.5-0.3,1.2-0.4,2.1-0.6l1.5-0.2c0.5,0,1-0.1,1.4-0.3c0.5-0.1,0.9-0.3,1.2-0.5V124.9z"/>
	<rect x="144" y="79.8" width="2.8" height="20.5"/>
	<path d="M166.4,85.1c-0.9,0-1.8,0.2-2.5,0.6c-0.8,0.4-1.4,1-2,1.8c-0.4-0.6-0.7-1.1-1.1-1.5c-0.7-0.6-1.7-0.9-2.9-0.9
		c-1.1,0-2,0.3-2.8,0.9c-0.5,0.3-1,0.9-1.6,1.6v-2.1h-2.4v14.9h2.5v-7.9c0-1.9,0.4-3.3,1.2-4c0.8-0.7,1.6-1.1,2.6-1.1
		c1,0,1.8,0.3,2.1,1c0.2,0.5,0.4,1.2,0.4,2.2v9.8h2.6v-8.7c0-1.5,0.4-2.6,1.1-3.3c0.7-0.7,1.5-1,2.5-1c0.7,0,1.3,0.2,1.8,0.6
		c0.5,0.4,0.7,1.1,0.7,2.1v10.4h2.6v-10c0-1.3-0.2-2.4-0.6-3.2C169.8,85.8,168.4,85.1,166.4,85.1z"/>
	<path d="M190.2,85.1c-0.9,0-1.8,0.2-2.5,0.6c-0.8,0.4-1.4,1-2,1.8c-0.4-0.6-0.7-1.1-1.1-1.5c-0.7-0.6-1.7-0.9-2.9-0.9
		c-1.1,0-2,0.3-2.8,0.9c-0.5,0.3-1,0.9-1.6,1.6v-2.1h-2.4v14.9h2.5v-7.9c0-1.9,0.4-3.3,1.2-4c0.8-0.7,1.6-1.1,2.6-1.1
		c1,0,1.8,0.3,2.1,1c0.2,0.5,0.4,1.2,0.4,2.2v9.8h2.6v-8.7c0-1.5,0.4-2.6,1.1-3.3c0.7-0.7,1.5-1,2.5-1c0.7,0,1.3,0.2,1.8,0.6
		c0.5,0.4,0.7,1.1,0.7,2.1v10.4h2.6v-10c0-1.3-0.2-2.4-0.6-3.2C193.6,85.8,192.2,85.1,190.2,85.1z"/>
	<rect x="198.6" y="85.5" width="2.6" height="14.9"/>
	<rect x="198.6" y="79.8" width="2.6" height="2.9"/>
	<path d="M214.6,87.4c-0.5-0.6-1-1.1-1.4-1.4c-0.9-0.6-1.9-0.9-3-0.9c-1.7,0-3.2,0.7-4.4,2.1c-1.2,1.4-1.8,3.2-1.8,5.9
		c0,2.6,0.6,4.5,1.8,5.7c1.2,1.2,2.6,1.7,4.2,1.7c1.2,0,2.1-0.2,2.8-0.6c0.7-0.4,1.3-0.9,1.8-1.7c0,2.1-0.1,3.5-0.5,4.3
		c-0.6,1.4-1.8,2-3.8,2c-1.2,0-2.1-0.3-2.7-0.8c-0.4-0.4-0.6-0.9-0.7-1.6h-2.6c0.1,1.5,0.7,2.7,1.8,3.4c1.1,0.7,2.5,1.1,4.1,1.1
		c2.9,0,4.9-1,5.9-3c0.6-1.1,0.8-2.6,0.8-4.5V85.5h-2.3V87.4z M214.1,96c-0.7,1.6-2,2.4-3.8,2.4c-1.1,0-2.1-0.5-2.7-1.3
		c-0.7-0.9-1-2.1-1-3.8c0-1.4,0.2-2.6,0.5-3.5c0.6-1.7,1.8-2.5,3.6-2.5c1.2,0,2.1,0.4,2.9,1.3c0.8,0.9,1.2,2.3,1.2,4.1
		C214.7,94,214.5,95.1,214.1,96z"/>
	<path d="M227.3,87.8h0.4c0.1,0.1,0.4,0.1,0.4,0.1v-2.7c-0.3-0.1-0.6-0.1-0.6-0.1h-0.2c-1,0-1.9,0.3-2.6,1.1
		c-0.8,0.7-1.2,1.3-1.4,1.8v-2.6h-2.4v15h2.5v-8.6c0-1,0.4-2,1-2.8C225.1,88.2,226,87.8,227.3,87.8z"/>
	<path d="M239.6,98.3c0.1,0.6,0.2,1,0.4,1.4c0.4,0.6,1,0.9,1.9,0.9c0.3,0,0.6,0,0.8,0c0.2,0,0.5-0.1,0.9-0.2v-1.9
		c-0.1,0.1-0.3,0.1-0.4,0.1c-0.1,0-0.3,0-0.4,0c-0.3,0-0.6-0.1-0.7-0.2c-0.1-0.2-0.2-0.4-0.2-0.6v-8.6c0-1.4-0.5-2.5-1.6-3.1
		c-1.1-0.7-2.5-1-4.3-1c-1.5,0-2.9,0.4-4,1.1c-1.2,0.7-1.8,2-1.8,3.9h2.3c0.1-0.8,0.3-1.4,0.6-1.8c0.6-0.7,1.5-1.1,2.8-1.1
		c1.1,0,2,0.2,2.6,0.6c0.6,0.4,0.9,1,0.9,1.9c0,0.4-0.1,0.7-0.2,1c-0.2,0.4-0.6,0.7-1.2,0.7l-4.1,0.4c-1.4,0.2-2.5,0.6-3.4,1.4
		c-0.9,0.8-1.3,1.8-1.3,3.2c0,1.3,0.5,2.3,1.3,3.2c0.9,0.8,2,1.3,3.4,1.3c1.2,0,2.2-0.2,3.2-0.7C238.4,99.6,239.1,99,239.6,98.3z
		 M237.5,98.1c-0.8,0.4-1.7,0.6-2.6,0.6c-0.7,0-1.4-0.2-1.9-0.6c-0.5-0.4-0.8-1-0.8-1.7c0-1,0.4-1.7,1.2-2.1
		c0.5-0.3,1.2-0.4,2.1-0.6l1.5-0.2c0.5,0,1-0.1,1.4-0.3c0.5-0.1,0.9-0.3,1.2-0.5v2C239.5,96.3,238.8,97.4,237.5,98.1z"/>
	<path d="M249.2,81.2h-2.5v0v4.2h-2v2.1h2v9.9c0,1,0.2,1.7,0.6,2.3c0.4,0.6,1.2,0.9,2.4,0.9c0.4,0,0.7,0,1-0.1
		c0.3,0,0.6-0.1,0.9-0.2v-2c-0.2,0-0.5,0-0.5,0h-0.4c-0.4,0-0.8-0.1-1-0.2c-0.4-0.2-0.5-0.5-0.5-1v-9.8h2.4v-2.1h-2.4V81.2z"/>
	<rect x="254.1" y="79.8" width="2.6" height="2.9"/>
	<rect x="254.1" y="85.5" width="2.6" height="14.9"/>
	<path d="M266.1,100.9c2.5,0,4.3-0.8,5.4-2.4c1.2-1.6,1.7-3.5,1.7-6c0-2.5-0.7-4.4-2-5.7c-1.3-1.3-2.9-1.9-4.8-1.9
		c-2.1,0-3.8,0.7-5.1,2.2c-1.3,1.5-1.9,3.5-1.9,6c0,2.3,0.6,4.2,1.8,5.6C262.4,100.2,264.1,100.9,266.1,100.9z M263,88.9
		c0.7-1.2,1.8-1.8,3.3-1.8c1.7,0,2.9,0.7,3.6,2.1c0.4,0.9,0.7,2,0.7,3.4c0,1.5-0.3,2.9-0.9,4.2c-0.6,1.2-1.7,1.9-3.4,1.9
		c-1.5,0-2.6-0.5-3.3-1.6c-0.7-1.1-1-2.3-1-4C262,91.5,262.3,90.1,263,88.9z"/>
	<path d="M285.5,88.7c0.3,0.6,0.4,1.3,0.4,2.2v9.4h2.6v-9.6c0-1.5-0.2-2.7-0.6-3.5c-0.7-1.5-2.2-2.2-4.3-2.2c-1,0-1.8,0.2-2.6,0.6
		c-0.8,0.4-1.5,1-2.2,1.9v-2.1h-2.4h0v14.9h2.5v-7.8c0-1,0.1-1.7,0.2-2.3c0.1-0.5,0.4-1,0.8-1.5c0.5-0.6,1.1-1,1.8-1.2
		c0.4-0.1,0.9-0.2,1.5-0.2C284.2,87.3,285,87.8,285.5,88.7z"/>
	<path d="M295,103.1c0.4-0.9,0.7-1.8,0.7-2.9v-2.8h-3v3h1.5c0,0.1,0,0.2,0,0.2v0.2c0,0.4-0.1,0.8-0.2,1.2c-0.3,0.8-0.7,1.3-1.4,1.4
		v1.4C293.8,104.4,294.6,103.9,295,103.1z"/>
	<path d="M325.4,100c-0.4-0.2-0.7-0.6-0.9-1.3c-0.1-0.4-0.2-1-0.2-1.7l-0.1-2.8c0-1.2-0.3-2.1-0.7-2.6c-0.4-0.5-1-1-1.8-1.3
		c0.9-0.5,1.6-1.1,2.1-1.9c0.5-0.8,0.8-1.8,0.8-3c0-2.3-0.9-4-2.8-4.8c-1-0.5-2.3-0.7-3.8-0.7h-9.3v20.5h2.8v-8.8h6.1
		c1.1,0,1.9,0.1,2.4,0.4c0.9,0.5,1.4,1.4,1.5,2.7l0.2,3.4c0,0.8,0.1,1.4,0.1,1.6c0.1,0.3,0.2,0.7,0.2,0.7h3.4V100z M320.7,88.5
		c-0.7,0.5-1.7,0.8-3,0.8v0h-6.2v-7h6.6c0.9,0,1.6,0.2,2.2,0.4c1,0.5,1.5,1.5,1.5,3C321.8,87,321.4,87.9,320.7,88.5z"/>
	<path d="M341.1,90.4c-0.2-1-0.5-1.9-1-2.6c-0.5-0.8-1.3-1.4-2.3-1.9c-1-0.5-2-0.8-3-0.8c-2.1,0-3.8,0.7-5.1,2.2
		c-1.3,1.5-1.9,3.4-1.9,5.9c0,2.4,0.6,4.3,1.9,5.7c1.3,1.4,2.8,2,4.7,2c0.8,0,1.4-0.1,2-0.2c1.1-0.3,2-0.8,2.8-1.5
		c0.5-0.4,0.9-1,1.2-1.7c0.4-0.7,0.6-1.3,0.6-1.8h-2.5c-0.2,0.7-0.5,1.3-0.9,1.8c-0.8,0.9-1.8,1.3-3.1,1.3c-1.4,0-2.4-0.4-3.1-1.4
		c-0.7-0.9-1-2.1-1.1-3.7h10.8C341.4,92.2,341.3,91.1,341.1,90.4z M338.8,91.7h-8.2c0-1.3,0.5-2.3,1.2-3.2c0.8-0.8,1.7-1.3,2.9-1.3
		c1.6,0,2.7,0.6,3.4,1.8C338.4,89.7,338.7,90.6,338.8,91.7L338.8,91.7z"/>
	<path d="M347.7,100.3V87.4h2.5v-2h-2.5c0-1.6,0.1-2.6,0.2-3c0.1-0.4,0.6-0.6,1.4-0.6h0.3c0.1,0,0.3,0,0.6,0v-2.3
		c-0.2,0-0.4,0-0.6,0h-0.5c-1.7,0-2.8,0.4-3.4,1.3c-0.3,0.5-0.5,1.3-0.5,2.3v2.3h-2.1v2h2.1v12.9H347.7z"/>
	<path d="M361.7,92.7c0,1.5-0.2,2.6-0.5,3.5c-0.6,1.6-1.8,2.3-3.5,2.3c-1.2,0-2-0.4-2.4-1.3c-0.2-0.5-0.4-1.1-0.4-1.9v-9.9h-2.6
		v10.2c0,1.3,0.2,2.3,0.6,3.1c0.7,1.4,2.2,2.1,4.3,2.1c1.3,0,2.5-0.4,3.4-1.2c0.5-0.4,0.9-0.9,1.2-1.4v2.2h2.4V85.4h-2.5V92.7z"/>
	<path d="M378.1,87.4c-0.5-0.6-1-1.1-1.4-1.4c-0.9-0.6-1.9-0.9-3-0.9c-1.7,0-3.2,0.7-4.4,2.1c-1.2,1.4-1.8,3.2-1.8,5.9
		c0,2.6,0.6,4.5,1.8,5.7c1.2,1.2,2.6,1.7,4.2,1.7c1.2,0,2.1-0.2,2.8-0.6c0.7-0.4,1.3-0.9,1.8-1.7c0,2.1-0.1,3.5-0.5,4.3
		c-0.6,1.4-1.8,2-3.8,2c-1.2,0-2.1-0.3-2.7-0.8c-0.4-0.4-0.6-0.9-0.7-1.6h-2.6c0.1,1.5,0.7,2.7,1.8,3.4c1.1,0.7,2.5,1.1,4.1,1.1
		c2.9,0,4.9-1,5.9-3c0.6-1.1,0.8-2.6,0.8-4.5V85.5h-2.3V87.4z M377.5,96c-0.7,1.6-2,2.4-3.8,2.4c-1.1,0-2.1-0.5-2.7-1.3
		c-0.7-0.9-1-2.1-1-3.8c0-1.4,0.2-2.6,0.5-3.5c0.6-1.7,1.8-2.5,3.6-2.5c1.2,0,2.1,0.4,2.9,1.3c0.8,0.9,1.1,2.3,1.2,4.1
		C378.1,94,377.9,95.1,377.5,96z"/>
	<path d="M396.7,90.4c-0.2-1-0.5-1.9-1-2.6c-0.5-0.8-1.3-1.4-2.3-1.9c-1-0.5-2-0.8-3-0.8c-2.1,0-3.8,0.7-5.1,2.2
		c-1.3,1.5-1.9,3.4-1.9,5.9c0,2.4,0.6,4.3,1.9,5.7c1.3,1.4,2.8,2,4.7,2c0.8,0,1.4-0.1,2-0.2c1.1-0.3,2-0.8,2.8-1.5
		c0.5-0.4,0.9-1,1.2-1.7c0.4-0.7,0.6-1.3,0.6-1.8h-2.5c-0.2,0.7-0.5,1.3-0.9,1.8c-0.8,0.9-1.8,1.3-3.1,1.3c-1.4,0-2.4-0.4-3.1-1.4
		c-0.7-0.9-1.1-2.1-1.1-3.7h10.8C396.9,92.2,396.8,91.1,396.7,90.4z M394.3,91.7h-8.2c0-1.3,0.5-2.3,1.2-3.2
		c0.8-0.8,1.7-1.3,2.9-1.3c1.6,0,2.8,0.6,3.4,1.8C394,89.7,394.2,90.6,394.3,91.7L394.3,91.7z"/>
	<path d="M412.6,90.4c-0.2-1-0.5-1.9-1-2.6c-0.5-0.8-1.3-1.4-2.3-1.9c-1-0.5-2-0.8-3-0.8c-2.1,0-3.8,0.7-5.1,2.2
		c-1.3,1.5-1.9,3.4-1.9,5.9c0,2.4,0.6,4.3,1.9,5.7c1.3,1.4,2.8,2,4.7,2c0.8,0,1.4-0.1,2-0.2c1.1-0.3,2-0.8,2.8-1.5
		c0.5-0.4,0.9-1,1.2-1.7c0.4-0.7,0.6-1.3,0.6-1.8h-2.5c-0.2,0.7-0.5,1.3-0.9,1.8c-0.8,0.9-1.8,1.3-3.1,1.3c-1.4,0-2.4-0.4-3.1-1.4
		c-0.7-0.9-1.1-2.1-1.1-3.7h10.8C412.8,92.2,412.7,91.1,412.6,90.4z M410.2,91.7H402c0-1.3,0.5-2.3,1.2-3.2c0.8-0.8,1.7-1.3,2.9-1.3
		c1.6,0,2.8,0.6,3.4,1.8C409.9,89.7,410.1,90.6,410.2,91.7L410.2,91.7z"/>
	<path d="M426.1,93c-0.6-0.4-1.9-0.8-3.7-1.3l-1.7-0.4c-0.7-0.2-1.3-0.4-1.7-0.6c-0.7-0.4-1-0.9-1-1.6c0-0.6,0.3-1.1,0.8-1.4
		c0.5-0.4,1.2-0.5,2.2-0.5c1.5,0,2.5,0.3,3.1,1c0.3,0.5,0.6,1,0.6,1.5h2.4c0-1-0.3-1.9-0.9-2.7c-1-1.3-2.6-2-4.9-2
		c-1.7,0-3.1,0.4-4.2,1.3c-1.1,0.9-1.6,2-1.6,3.4c0,1.2,0.5,2.2,1.6,2.8c0.6,0.4,1.6,0.8,2.9,1.1l2,0.5c1.1,0.3,1.8,0.5,2.2,0.7
		c0.6,0.3,0.9,0.8,0.9,1.5c0,0.8-0.3,1.5-1.1,1.9c-0.7,0.4-1.6,0.6-2.5,0.6c-1.6,0-2.7-0.4-3.4-1.2c-0.3-0.5-0.6-1.1-0.6-1.9h-2.4
		c0.1,1.5,0.6,2.8,1.5,3.8c1,1,2.5,1.5,4.8,1.5c2.1,0,3.6-0.5,4.7-1.5c1-1,1.5-2.1,1.5-3.4C427.5,94.7,427,93.6,426.1,93z"/>
	<path d="M499.6,120.5c-0.2-1-0.5-1.9-1-2.6c-0.5-0.8-1.3-1.4-2.3-1.9c-1-0.5-2-0.8-3-0.8c-2.1,0-3.8,0.7-5.1,2.2
		c-1.3,1.5-1.9,3.4-1.9,5.9c0,2.4,0.6,4.3,1.9,5.7c1.3,1.4,2.8,2,4.7,2c0.8,0,1.4-0.1,2-0.2c1.1-0.3,2-0.8,2.8-1.5
		c0.5-0.4,0.9-1,1.2-1.7c0.4-0.7,0.6-1.3,0.6-1.8h-2.5c-0.2,0.7-0.5,1.3-0.9,1.8c-0.8,0.9-1.8,1.3-3.1,1.3c-1.4,0-2.4-0.4-3.1-1.4
		c-0.7-0.9-1.1-2.1-1.1-3.7h10.8C499.9,122.3,499.8,121.2,499.6,120.5z M489.1,121.8c0-1.3,0.5-2.3,1.2-3.2c0.8-0.8,1.7-1.2,2.9-1.2
		c1.6,0,2.8,0.6,3.4,1.8c0.4,0.6,0.6,1.5,0.7,2.6H489.1z"/>
	<path d="M506.1,111.3h-2.5v4.2h-2v2.1h2v9.9c0,1,0.2,1.7,0.6,2.3c0.4,0.6,1.2,0.9,2.4,0.9c0.4,0,0.7,0,1-0.1c0.3,0,0.6-0.1,0.9-0.2
		v-2c-0.2,0-0.5,0-0.5,0h-0.4c-0.4,0-0.8-0.1-1-0.2c-0.4-0.2-0.5-0.5-0.5-1v-9.8h2.4v-2.1h-2.4V111.3z"/>
	<path d="M532.3,126.2c-1.1,1.6-2.6,2.4-4.6,2.4c-2.2,0-3.8-0.7-4.9-2.2c-1.1-1.5-1.7-3.5-1.7-5.9c0-2.9,0.6-5.1,1.8-6.5
		c1.2-1.4,2.8-2.1,4.8-2.1c1.6,0,2.9,0.4,3.8,1.2c0.9,0.8,1.5,1.8,1.8,3.1h2.7c-0.2-1.7-0.9-3.3-2.4-4.7c-1.4-1.4-3.4-2.1-6-2.1
		c-3,0-5.4,1.1-7.1,3.2c-1.6,2-2.4,4.4-2.4,7.5c0,4,1.1,6.9,3.2,8.8c1.6,1.4,3.6,2.2,5.9,2.2c2.7,0,4.9-0.9,6.5-2.6
		c1.3-1.5,2.1-3.3,2.4-5.4h-2.7C533.3,124.3,532.9,125.4,532.3,126.2z"/>
	<rect x="539.5" y="109.9" width="2.6" height="2.9"/>
	<rect x="539.5" y="115.6" width="2.6" height="14.9"/>
	<path d="M548.9,111.3h-2.5v4.2h-2v2.1h2v9.9c0,1,0.2,1.7,0.6,2.3c0.4,0.6,1.2,0.9,2.4,0.9c0.4,0,0.7,0,1-0.1c0.3,0,0.6-0.1,0.9-0.2
		v-2c-0.2,0-0.5,0-0.5,0h-0.4c-0.4,0-0.8-0.1-1-0.2c-0.4-0.2-0.5-0.5-0.5-1v-9.8h2.4v-2.1h-2.4V111.3z"/>
	<path d="M559.8,115.1c-2.1,0-3.8,0.7-5.1,2.2c-1.3,1.5-1.9,3.5-1.9,6c0,2.3,0.6,4.2,1.8,5.6c1.2,1.4,2.8,2.1,4.9,2.1
		c2.5,0,4.3-0.8,5.4-2.4c1.1-1.6,1.7-3.5,1.7-6s-0.7-4.4-2-5.7C563.3,115.7,561.7,115.1,559.8,115.1z M563,126.9
		c-0.6,1.3-1.7,1.9-3.4,1.9c-1.5,0-2.6-0.5-3.3-1.6c-0.7-1.1-1-2.3-1-4c0-1.6,0.3-3.1,1-4.2c0.7-1.2,1.8-1.8,3.3-1.8
		c1.7,0,2.9,0.7,3.6,2.1c0.4,0.9,0.7,2,0.7,3.4C564,124.3,563.6,125.7,563,126.9z"/>
	<path d="M596.4,120.5c-0.2-1-0.5-1.9-1-2.6c-0.5-0.8-1.3-1.4-2.3-1.9c-1-0.5-2-0.8-3-0.8c-2.1,0-3.8,0.7-5.1,2.2
		c-1.3,1.5-1.9,3.4-1.9,5.9c0,2.4,0.6,4.3,1.9,5.7c1.3,1.4,2.8,2,4.7,2c0.8,0,1.4-0.1,2-0.2c1.1-0.3,2-0.8,2.8-1.5
		c0.5-0.4,0.9-1,1.2-1.7c0.4-0.7,0.6-1.3,0.6-1.8H594c-0.2,0.7-0.5,1.3-0.9,1.8c-0.8,0.9-1.8,1.3-3.1,1.3c-1.4,0-2.4-0.4-3.1-1.4
		c-0.7-0.9-1.1-2.1-1.1-3.7h10.8C596.6,122.3,596.5,121.2,596.4,120.5z M585.8,121.8c0-1.3,0.5-2.3,1.2-3.2c0.8-0.8,1.7-1.2,2.9-1.2
		c1.6,0,2.8,0.6,3.4,1.8c0.4,0.6,0.6,1.5,0.7,2.6H585.8z"/>
	<path d="M607.1,115.2c-1,0-1.8,0.2-2.6,0.6c-0.8,0.4-1.5,1-2.2,1.9v-2.1h-2.4h0v14.9h2.5v-7.8c0-1,0.1-1.7,0.2-2.3
		c0.1-0.5,0.4-1,0.8-1.5c0.5-0.6,1.1-1,1.8-1.2c0.4-0.1,0.9-0.2,1.5-0.2c1.2,0,2,0.5,2.4,1.4c0.3,0.6,0.4,1.3,0.4,2.2v9.4h2.6v-9.6
		c0-1.5-0.2-2.7-0.6-3.5C610.6,115.9,609.2,115.2,607.1,115.2z"/>
	<path d="M622.9,115.2c-1,0-1.8,0.2-2.6,0.6c-0.8,0.4-1.5,1-2.2,1.9v-2.1h-2.4h-0.1v14.9h2.5v-7.8c0-1,0.1-1.7,0.2-2.3
		c0.1-0.5,0.4-1,0.8-1.5c0.5-0.6,1.1-1,1.8-1.2c0.4-0.1,0.9-0.2,1.5-0.2c1.2,0,2,0.5,2.4,1.4c0.3,0.6,0.4,1.3,0.4,2.2v9.4h2.6v-9.6
		c0-1.5-0.2-2.7-0.6-3.5C626.5,115.9,625.1,115.2,622.9,115.2z"/>
	<path d="M644,120.5c-0.2-1-0.5-1.9-1-2.6c-0.5-0.8-1.3-1.4-2.3-1.9c-1-0.5-2-0.8-3-0.8c-2.1,0-3.8,0.7-5.1,2.2
		c-1.3,1.5-1.9,3.4-1.9,5.9c0,2.4,0.7,4.3,1.9,5.7c1.3,1.4,2.8,2,4.7,2c0.8,0,1.4-0.1,2-0.2c1.1-0.3,2-0.8,2.8-1.5
		c0.5-0.4,0.9-1,1.2-1.7c0.4-0.7,0.6-1.3,0.6-1.8h-2.5c-0.2,0.7-0.5,1.3-0.9,1.8c-0.8,0.9-1.8,1.3-3.1,1.3c-1.4,0-2.4-0.4-3.1-1.4
		c-0.7-0.9-1.1-2.1-1.1-3.7h10.8C644.2,122.3,644.2,121.2,644,120.5z M633.4,121.8c0-1.3,0.5-2.3,1.2-3.2c0.8-0.8,1.7-1.2,2.9-1.2
		c1.6,0,2.8,0.6,3.4,1.8c0.4,0.6,0.6,1.5,0.7,2.6H633.4z"/>
	<path d="M650.5,111.3h-2.5v4.2h-2v2.1h2v9.9c0,1,0.2,1.7,0.6,2.3s1.2,0.9,2.4,0.9c0.4,0,0.7,0,1-0.1c0.3,0,0.6-0.1,0.9-0.2v-2
		c-0.2,0-0.5,0-0.5,0H652c-0.4,0-0.8-0.1-1-0.2c-0.4-0.2-0.5-0.5-0.5-1v-9.8h2.4v-2.1h-2.4V111.3z"/>
	<path d="M667.8,120.5c-0.2-1-0.5-1.9-1-2.6c-0.5-0.8-1.3-1.4-2.3-1.9c-1-0.5-2-0.8-3-0.8c-2.1,0-3.8,0.7-5.1,2.2
		c-1.3,1.5-1.9,3.4-1.9,5.9c0,2.4,0.6,4.3,1.9,5.7c1.3,1.4,2.8,2,4.7,2c0.8,0,1.4-0.1,2-0.2c1.1-0.3,2-0.8,2.8-1.5
		c0.5-0.4,0.9-1,1.2-1.7c0.4-0.7,0.6-1.3,0.6-1.8h-2.5c-0.2,0.7-0.5,1.3-0.9,1.8c-0.8,0.9-1.8,1.3-3.1,1.3c-1.4,0-2.4-0.4-3.1-1.4
		c-0.7-0.9-1.1-2.1-1.1-3.7h10.8C668.1,122.3,668,121.2,667.8,120.5z M657.3,121.8c0-1.3,0.5-2.3,1.2-3.2c0.8-0.8,1.7-1.2,2.9-1.2
		c1.6,0,2.8,0.6,3.4,1.8c0.4,0.6,0.6,1.5,0.7,2.6H657.3z"/>
	<polygon points="661.4,109.5 658.8,113.5 660.7,113.5 664.5,109.5 	"/>
	<path d="M692.6,126.2c-1.1,1.6-2.6,2.4-4.6,2.4c-2.2,0-3.8-0.7-4.9-2.2c-1.1-1.5-1.7-3.5-1.7-5.9c0-2.9,0.6-5.1,1.8-6.5
		c1.2-1.4,2.8-2.1,4.8-2.1c1.6,0,2.9,0.4,3.8,1.2c0.9,0.8,1.5,1.8,1.8,3.1h2.7c-0.2-1.7-1-3.3-2.4-4.7c-1.4-1.4-3.4-2.1-6-2.1
		c-3,0-5.4,1.1-7,3.2c-1.6,2-2.4,4.4-2.4,7.5c0,4,1.1,6.9,3.2,8.8c1.6,1.4,3.6,2.2,5.9,2.2c2.7,0,4.9-0.9,6.5-2.6
		c1.3-1.5,2.1-3.3,2.4-5.4h-2.7C693.6,124.3,693.2,125.4,692.6,126.2z"/>
	<path d="M712.4,128.8c-0.3,0-0.6-0.1-0.7-0.2c-0.1-0.2-0.2-0.4-0.2-0.6v-8.6c0-1.4-0.5-2.5-1.6-3.1c-1.1-0.7-2.5-1-4.3-1
		c-1.5,0-2.8,0.4-4,1.1c-1.2,0.7-1.8,2-1.8,3.9h2.3c0.1-0.8,0.3-1.4,0.6-1.8c0.6-0.7,1.5-1.1,2.8-1.1c1.1,0,2,0.2,2.6,0.6
		c0.6,0.4,0.9,1,0.9,1.9c0,0.4-0.1,0.7-0.2,1c-0.2,0.4-0.6,0.7-1.2,0.7l-4,0.5c-1.4,0.2-2.5,0.6-3.4,1.4c-0.9,0.8-1.3,1.8-1.3,3.2
		c0,1.3,0.5,2.3,1.3,3.2c0.9,0.8,2,1.3,3.4,1.3c1.2,0,2.2-0.2,3.2-0.7c1-0.5,1.7-1.1,2.2-1.7c0.1,0.6,0.2,1,0.4,1.4
		c0.4,0.6,1,0.9,1.9,0.9c0.3,0,0.6,0,0.8,0c0.2,0,0.5-0.1,0.9-0.2v-1.9c-0.1,0-0.3,0.1-0.4,0.1C712.7,128.8,712.5,128.8,712.4,128.8
		z M709,124.9c0,1.5-0.7,2.7-2.1,3.3c-0.8,0.4-1.7,0.6-2.6,0.6c-0.7,0-1.4-0.2-1.9-0.6c-0.5-0.4-0.8-1-0.8-1.7c0-1,0.4-1.7,1.2-2.1
		c0.5-0.3,1.2-0.4,2.1-0.6l1.5-0.2c0.5,0,1-0.1,1.4-0.3c0.5-0.1,0.9-0.3,1.2-0.5V124.9z"/>
	<path d="M722.9,115.2c-1,0-1.8,0.2-2.6,0.6c-0.8,0.4-1.6,1-2.3,1.9v-2.1h-2.4v14.9h2.5v-7.8c0-1,0.1-1.7,0.2-2.3
		c0.1-0.5,0.4-1,0.8-1.5c0.5-0.6,1.1-1,1.8-1.2c0.4-0.1,0.9-0.2,1.5-0.2c1.2,0,2,0.5,2.4,1.4c0.3,0.6,0.4,1.3,0.4,2.2v9.4h2.6v-9.6
		c0-1.5-0.2-2.7-0.6-3.5C726.5,115.9,725.1,115.2,722.9,115.2z"/>
	<path d="M744.2,128.8c-0.3,0-0.6-0.1-0.7-0.2c-0.1-0.2-0.2-0.4-0.2-0.6v-8.6c0-1.4-0.5-2.5-1.6-3.1c-1.1-0.7-2.5-1-4.3-1
		c-1.5,0-2.8,0.4-4,1.1c-1.2,0.7-1.8,2-1.8,3.9h2.3c0.1-0.8,0.3-1.4,0.6-1.8c0.6-0.7,1.5-1.1,2.8-1.1c1.1,0,2,0.2,2.6,0.6
		c0.6,0.4,0.9,1,0.9,1.9c0,0.4-0.1,0.7-0.2,1c-0.2,0.4-0.6,0.7-1.2,0.7l-4,0.5c-1.4,0.2-2.5,0.6-3.4,1.4c-0.9,0.8-1.3,1.8-1.3,3.2
		c0,1.3,0.5,2.3,1.3,3.2c0.9,0.8,2,1.3,3.4,1.3c1.2,0,2.2-0.2,3.2-0.7c1-0.5,1.7-1.1,2.2-1.7c0.1,0.6,0.2,1,0.4,1.4
		c0.4,0.6,1,0.9,1.9,0.9c0.3,0,0.6,0,0.8,0c0.2,0,0.5-0.1,0.9-0.2v-1.9c-0.1,0-0.3,0.1-0.4,0.1C744.4,128.8,744.3,128.8,744.2,128.8
		z M740.8,124.9c0,1.5-0.7,2.7-2.1,3.3c-0.8,0.4-1.7,0.6-2.6,0.6c-0.7,0-1.4-0.2-1.9-0.6c-0.5-0.4-0.8-1-0.8-1.7
		c0-1,0.4-1.7,1.2-2.1c0.5-0.3,1.2-0.4,2.1-0.6l1.5-0.2c0.5,0,1-0.1,1.4-0.3c0.5-0.1,0.9-0.3,1.2-0.5V124.9z"/>
	<path d="M757.1,117.4c-0.6-0.7-1.1-1.2-1.5-1.5c-0.8-0.5-1.7-0.7-2.8-0.7c-2.1,0-3.7,0.8-4.8,2.4c-1.1,1.6-1.7,3.5-1.7,5.7
		c0,2.3,0.6,4.2,1.8,5.6c1.2,1.4,2.6,2.1,4.3,2.1c1,0,1.9-0.2,2.7-0.6c0.8-0.4,1.5-1.1,2.1-2v2.1h2.3v-20.6h-2.4V117.4z
		 M756.1,127.3c-0.8,1-1.7,1.5-2.9,1.5c-1.5,0-2.6-0.6-3.3-1.6c-0.7-1.1-1-2.4-1-4c0-1.9,0.4-3.3,1.2-4.3c0.8-1,1.8-1.5,3.1-1.5
		c1.1,0,2.1,0.5,2.8,1.4c0.8,0.9,1.2,2.3,1.2,4.2C757.3,124.9,756.9,126.3,756.1,127.3z"/>
	<rect x="488.1" y="79.8" width="2.8" height="20.5"/>
	<path d="M510.5,85.1c-0.9,0-1.8,0.2-2.5,0.6c-0.8,0.4-1.4,1-2,1.8c-0.3-0.6-0.7-1.1-1.1-1.5c-0.7-0.6-1.7-0.9-2.9-0.9
		c-1.1,0-2,0.3-2.8,0.9c-0.5,0.3-1,0.9-1.6,1.6v-2.1h-2.5v14.9h2.5v-7.9c0-1.9,0.4-3.3,1.2-4c0.8-0.7,1.6-1.1,2.6-1.1
		c1,0,1.8,0.3,2.1,1c0.2,0.5,0.4,1.2,0.4,2.2v9.8h2.6v-8.7c0-1.5,0.4-2.6,1.1-3.3c0.7-0.7,1.6-1,2.6-1c0.7,0,1.3,0.2,1.8,0.6
		c0.5,0.4,0.7,1.1,0.7,2.1v10.4h2.6v-10c0-1.3-0.2-2.4-0.6-3.2C513.9,85.8,512.5,85.1,510.5,85.1z"/>
	<path d="M534.3,85.1c-0.9,0-1.8,0.2-2.5,0.6c-0.8,0.4-1.4,1-2,1.8c-0.4-0.6-0.7-1.1-1.1-1.5c-0.7-0.6-1.7-0.9-2.9-0.9
		c-1.1,0-2,0.3-2.8,0.9c-0.5,0.3-1,0.9-1.6,1.6v-2.1h-2.4v14.9h2.5v-7.9c0-1.9,0.4-3.3,1.2-4c0.8-0.7,1.7-1.1,2.6-1.1
		c1,0,1.7,0.3,2.1,1c0.2,0.5,0.4,1.2,0.4,2.2v9.8h2.6v-8.7c0-1.5,0.4-2.6,1.1-3.3c0.7-0.7,1.5-1,2.5-1c0.7,0,1.3,0.2,1.8,0.6
		c0.5,0.4,0.7,1.1,0.7,2.1v10.4h2.6v-10c0-1.3-0.2-2.4-0.6-3.2C537.7,85.8,536.3,85.1,534.3,85.1z"/>
	<rect x="542.6" y="79.8" width="2.6" height="2.9"/>
	<rect x="542.6" y="85.5" width="2.6" height="14.9"/>
	<path d="M549.8,87.2c-1.2,1.4-1.8,3.2-1.8,5.9c0,2.6,0.6,4.5,1.8,5.7c1.2,1.2,2.6,1.7,4.2,1.7c1.2,0,2.1-0.2,2.8-0.6
		c0.7-0.4,1.3-0.9,1.8-1.7c0,2.1-0.1,3.5-0.5,4.3c-0.6,1.4-1.8,2-3.8,2c-1.2,0-2.1-0.3-2.7-0.8c-0.4-0.4-0.6-0.9-0.7-1.6h-2.6
		c0.1,1.5,0.7,2.7,1.8,3.4c1.1,0.7,2.5,1.1,4.1,1.1c2.9,0,4.9-1,5.9-3c0.6-1.1,0.8-2.6,0.8-4.5V85.5h-2.3v1.9
		c-0.5-0.6-1-1.1-1.4-1.4c-0.9-0.6-1.9-0.9-3-0.9C552.5,85.1,551.1,85.8,549.8,87.2z M551.1,89.8c0.6-1.7,1.8-2.5,3.6-2.5
		c1.2,0,2.1,0.4,2.9,1.3c0.8,0.9,1.2,2.3,1.2,4.1c0,1.2-0.2,2.3-0.6,3.2c-0.7,1.6-2,2.4-3.8,2.4c-1.1,0-2.1-0.5-2.7-1.3
		c-0.7-0.9-1-2.1-1-3.8C550.6,91.9,550.8,90.7,551.1,89.8z"/>
	<path d="M571.4,87.8h0.4c0.1,0.1,0.4,0.1,0.4,0.1v-2.7c-0.3-0.1-0.6-0.1-0.6-0.1h-0.2c-1,0-1.9,0.3-2.6,1.1
		c-0.8,0.7-1.2,1.3-1.4,1.8v-2.6h-2.4v15h2.5v-8.6c0-1,0.4-2,1-2.8C569.2,88.2,570.1,87.8,571.4,87.8z"/>
	<path d="M576.3,86.1c-1.2,0.7-1.8,2-1.8,3.9h2.3c0.1-0.8,0.3-1.4,0.6-1.8c0.6-0.7,1.5-1.1,2.8-1.1c1.1,0,2,0.2,2.6,0.6
		c0.6,0.4,0.9,1,0.9,1.9c0,0.4-0.1,0.7-0.2,1c-0.2,0.4-0.6,0.7-1.2,0.7l-4,0.5c-1.4,0.2-2.5,0.6-3.4,1.4c-0.9,0.8-1.3,1.8-1.3,3.2
		c0,1.3,0.5,2.3,1.3,3.2c0.9,0.8,2,1.3,3.4,1.3c1.2,0,2.2-0.2,3.2-0.7c1-0.5,1.7-1.1,2.2-1.7c0.1,0.6,0.2,1,0.4,1.4
		c0.4,0.6,1,0.9,1.9,0.9c0.3,0,0.6,0,0.8,0c0.2,0,0.5-0.1,0.9-0.2v-1.9c-0.1,0.1-0.3,0.1-0.4,0.1c-0.1,0-0.3,0-0.4,0
		c-0.3,0-0.6-0.1-0.7-0.2c-0.1-0.2-0.2-0.4-0.2-0.6v-8.6c0-1.4-0.5-2.5-1.6-3.1c-1.1-0.7-2.5-1-4.3-1
		C578.7,85,577.4,85.4,576.3,86.1z M583.6,94.8c0,1.5-0.7,2.7-2.1,3.3c-0.8,0.4-1.7,0.6-2.6,0.6c-0.7,0-1.4-0.2-1.9-0.6
		c-0.5-0.4-0.8-1-0.8-1.7c0-1,0.4-1.7,1.2-2.1c0.5-0.3,1.2-0.4,2.1-0.6l1.5-0.2c0.5,0,1-0.1,1.4-0.3c0.5-0.1,0.9-0.3,1.2-0.5V94.8z"
		/>
	<path d="M590.7,81.2v4.2h-2v2.1h2v9.9c0,1,0.2,1.7,0.6,2.3c0.4,0.6,1.2,0.9,2.4,0.9c0.4,0,0.7-0.1,1-0.1c0.3,0,0.6-0.1,0.9-0.2v-2
		c-0.2,0-0.5,0-0.5,0h-0.4c-0.4,0-0.8-0.1-1-0.2c-0.4-0.2-0.5-0.5-0.5-1v-9.8h2.4v-2.1h-2.4v-4.2H590.7z"/>
	<rect x="598.2" y="79.8" width="2.6" height="2.9"/>
	<rect x="598.2" y="85.5" width="2.6" height="14.9"/>
	<path d="M615.3,86.9c-1.3-1.3-2.9-1.9-4.9-1.9c-2.1,0-3.8,0.7-5.1,2.2c-1.3,1.5-1.9,3.5-1.9,6c0,2.3,0.6,4.2,1.8,5.6
		c1.2,1.4,2.8,2.1,4.9,2.1c2.5,0,4.3-0.8,5.4-2.4c1.2-1.6,1.7-3.5,1.7-6C617.3,90,616.6,88.2,615.3,86.9z M613.8,96.8
		c-0.6,1.2-1.7,1.9-3.4,1.9c-1.5,0-2.6-0.5-3.3-1.6c-0.7-1.1-1-2.3-1-4c0-1.6,0.3-3.1,1-4.2c0.7-1.2,1.8-1.8,3.3-1.8
		c1.7,0,2.9,0.7,3.6,2.1c0.4,0.9,0.7,2,0.7,3.4C614.7,94.2,614.3,95.6,613.8,96.8z"/>
	<path d="M632.5,100.4v-9.6c0-1.5-0.2-2.7-0.6-3.5c-0.7-1.5-2.2-2.2-4.3-2.2c-1,0-1.8,0.2-2.6,0.6c-0.8,0.4-1.6,1-2.3,1.9v-2.1h-2.4
		v14.9h2.5v-7.8c0-1,0.1-1.7,0.2-2.3c0.1-0.5,0.4-1,0.8-1.5c0.5-0.6,1.1-1,1.8-1.2c0.4-0.1,0.9-0.2,1.5-0.2c1.2,0,2,0.5,2.4,1.4
		c0.3,0.6,0.4,1.3,0.4,2.2v9.4H632.5z"/>
	<path d="M638.4,100.7c0,0.4-0.1,0.8-0.2,1.2c-0.3,0.8-0.7,1.3-1.4,1.4h0v1.4c1.1-0.2,1.9-0.7,2.3-1.6c0.4-0.9,0.7-1.8,0.7-2.9v-2.8
		h-3v3h1.5c0,0.1,0,0.2,0,0.2V100.7z"/>
	<path d="M668.6,98.7c-0.1-0.4-0.2-1-0.2-1.7l-0.1-2.8c0-1.2-0.3-2.1-0.7-2.6c-0.4-0.5-1-1-1.8-1.3c0.9-0.5,1.6-1.1,2.1-1.9
		c0.5-0.8,0.8-1.8,0.8-3c0-2.3-0.9-4-2.8-4.8c-1-0.5-2.3-0.7-3.8-0.7h-9.3v20.5h2.8v-8.8h6.1c1.1,0,1.9,0.1,2.4,0.4
		c0.9,0.5,1.4,1.4,1.5,2.7l0.2,3.4c0,0.8,0.1,1.4,0.1,1.6c0.1,0.3,0.2,0.7,0.2,0.7h3.4V100C669.1,99.8,668.8,99.4,668.6,98.7z
		 M664.8,88.5c-0.7,0.5-1.7,0.8-3,0.8v0h-6.2v-7h6.6c0.9,0,1.6,0.2,2.2,0.4c1,0.5,1.5,1.5,1.5,3C665.9,87,665.5,87.9,664.8,88.5z"/>
	<polygon points="681.9,79.4 678.8,79.4 676.2,83.4 678.1,83.4 	"/>
	<path d="M680.6,100.6c1.1-0.3,2-0.8,2.8-1.5c0.5-0.4,0.9-1,1.2-1.7c0.4-0.7,0.6-1.3,0.6-1.8h-2.5c-0.2,0.7-0.5,1.3-0.9,1.8
		c-0.8,0.9-1.8,1.3-3.1,1.3c-1.4,0-2.4-0.4-3.1-1.4c-0.7-0.9-1.1-2.1-1.1-3.7h10.8c0-1.5-0.1-2.6-0.2-3.3c-0.2-1-0.5-1.9-1-2.6
		c-0.5-0.8-1.3-1.4-2.3-1.9c-1-0.5-2-0.8-3-0.8c-2.1,0-3.8,0.7-5.1,2.2c-1.3,1.5-1.9,3.4-1.9,5.9c0,2.4,0.6,4.3,1.9,5.7
		c1.3,1.4,2.8,2,4.7,2C679.4,100.9,680,100.8,680.6,100.6z M675.9,88.5c0.8-0.8,1.7-1.3,2.9-1.3c1.6,0,2.7,0.6,3.4,1.8
		c0.4,0.6,0.6,1.5,0.7,2.6v0h-8.2C674.7,90.4,675.1,89.4,675.9,88.5z"/>
	<path d="M689.2,100.3h2.5V87.4h2.5v-2h-2.5c0-1.6,0.1-2.6,0.2-3c0.1-0.4,0.6-0.6,1.4-0.6h0.3c0.1,0,0.3,0,0.6,0v-2.3
		c-0.2,0-0.4,0-0.6,0h-0.5c-1.7,0-2.8,0.4-3.4,1.3c-0.3,0.5-0.5,1.3-0.5,2.3v2.3h-2.1v2h2.1V100.3z"/>
	<path d="M704.8,99.6c0.5-0.4,0.9-0.9,1.2-1.4v2.2h2.4V85.4h-2.5v7.3c0,1.5-0.2,2.6-0.5,3.5c-0.6,1.6-1.8,2.3-3.5,2.3
		c-1.2,0-2-0.4-2.4-1.3c-0.2-0.5-0.4-1.1-0.4-1.9v-9.9h-2.6v10.2c0,1.3,0.2,2.3,0.6,3.1c0.7,1.4,2.2,2.1,4.3,2.1
		C702.7,100.8,703.8,100.4,704.8,99.6z"/>
	<path d="M723.6,103.6c0.6-1.1,0.8-2.6,0.8-4.5V85.5h-2.3v1.9c-0.5-0.6-1-1.1-1.4-1.4c-0.9-0.6-1.9-0.9-3-0.9
		c-1.7,0-3.2,0.7-4.4,2.1c-1.2,1.4-1.8,3.2-1.8,5.9c0,2.6,0.6,4.5,1.8,5.7c1.2,1.2,2.6,1.7,4.2,1.7c1.2,0,2.1-0.2,2.8-0.6
		c0.7-0.4,1.3-0.9,1.8-1.7c0,2.1-0.1,3.5-0.5,4.3c-0.6,1.4-1.8,2-3.8,2c-1.2,0-2.1-0.3-2.7-0.8c-0.4-0.4-0.6-0.9-0.7-1.6h-2.6
		c0.1,1.5,0.7,2.7,1.8,3.4c1.1,0.7,2.5,1.1,4.1,1.1C720.6,106.6,722.6,105.6,723.6,103.6z M721.6,96c-0.7,1.6-2,2.4-3.8,2.4
		c-1.1,0-2.1-0.5-2.7-1.3c-0.7-0.9-1-2.1-1-3.8c0-1.4,0.2-2.6,0.5-3.5c0.6-1.7,1.8-2.5,3.6-2.5c1.2,0,2.1,0.4,2.9,1.3
		c0.8,0.9,1.1,2.3,1.2,4.1C722.2,94,722,95.1,721.6,96z"/>
	<rect x="728.3" y="79.8" width="2.6" height="2.9"/>
	<rect x="728.3" y="85.5" width="2.6" height="14.9"/>
	<path d="M747.2,95.6h-2.5c-0.2,0.7-0.5,1.3-0.9,1.8c-0.8,0.9-1.8,1.3-3.1,1.3c-1.4,0-2.4-0.4-3.1-1.4c-0.7-0.9-1.1-2.1-1.1-3.7
		h10.8c0-1.5-0.1-2.6-0.2-3.3c-0.2-1-0.5-1.9-1-2.6c-0.5-0.8-1.3-1.4-2.3-1.9c-1-0.5-2-0.8-3-0.8c-2.1,0-3.8,0.7-5.1,2.2
		c-1.3,1.5-1.9,3.4-1.9,5.9c0,2.4,0.6,4.3,1.9,5.7c1.3,1.4,2.8,2,4.7,2c0.8,0,1.4-0.1,2-0.2c1.1-0.3,2-0.8,2.8-1.5
		c0.5-0.4,0.9-1,1.2-1.7C746.9,96.8,747.1,96.2,747.2,95.6z M737.8,88.5c0.8-0.8,1.7-1.3,2.9-1.3c1.6,0,2.7,0.6,3.4,1.8
		c0.4,0.6,0.6,1.5,0.7,2.6v0h-8.2C736.6,90.4,737,89.4,737.8,88.5z"/>
	<polygon points="743.8,79.4 740.7,79.4 738.1,83.4 740,83.4 	"/>
	<path d="M760.6,93c-0.6-0.4-1.9-0.8-3.7-1.3l-1.7-0.4c-0.7-0.2-1.3-0.4-1.7-0.6c-0.7-0.4-1-0.9-1-1.6c0-0.6,0.3-1.1,0.8-1.4
		c0.5-0.4,1.2-0.5,2.2-0.5c1.5,0,2.5,0.3,3.1,1c0.3,0.5,0.6,1,0.6,1.5h2.4c0-1-0.3-1.9-0.9-2.7c-1-1.3-2.7-2-4.9-2
		c-1.7,0-3.1,0.4-4.2,1.3c-1,0.9-1.6,2-1.6,3.4c0,1.2,0.5,2.2,1.6,2.8c0.6,0.4,1.6,0.8,2.9,1.1l2,0.5c1.1,0.3,1.8,0.5,2.2,0.7
		c0.6,0.3,0.9,0.8,0.9,1.5c0,0.8-0.3,1.5-1.1,1.9c-0.7,0.4-1.5,0.6-2.5,0.6c-1.6,0-2.7-0.4-3.4-1.2c-0.3-0.5-0.6-1.1-0.6-1.9h-2.4
		c0.1,1.5,0.6,2.8,1.5,3.8c1,1,2.5,1.5,4.8,1.5c2.1,0,3.6-0.5,4.7-1.5c1-1,1.5-2.1,1.5-3.4C762.1,94.7,761.6,93.6,760.6,93z"/>
	<path d="M329.3,115.1c-1.1,0-2.1,0.3-3,0.8c-0.6,0.4-1.2,0.9-1.7,1.6v-2h-2.4v20.8h2.5v-7.6c0.6,0.7,1.1,1.2,1.5,1.4
		c0.8,0.5,1.7,0.7,2.8,0.7c1.5,0,2.7-0.4,3.8-1.3c1.7-1.4,2.6-3.7,2.6-7c0-2.4-0.6-4.3-1.8-5.6C332.4,115.8,331,115.1,329.3,115.1z
		 M331.6,127.3c-0.8,1-1.8,1.5-3,1.5c-1.7,0-2.9-0.8-3.6-2.3c-0.4-0.8-0.5-1.8-0.5-2.9c0-1.4,0.2-2.6,0.5-3.5
		c0.7-1.7,1.9-2.6,3.6-2.6c1.7,0,2.9,0.8,3.6,2.5c0.4,0.9,0.5,1.9,0.5,3.1C332.8,124.8,332.4,126.3,331.6,127.3z"/>
	<path d="M575,127.7l-4-12.2h-2.8l5.5,15.4c-0.1,0.3-0.3,0.8-0.6,1.5c-0.3,0.7-0.5,1.1-0.5,1.1c-0.2,0.2-0.3,0.4-0.6,0.6
		c-0.2,0.2-0.6,0.2-1,0.2c-0.2,0-0.3,0-0.5,0c-0.2,0-0.5-0.1-0.9-0.2v2.3c0.3,0.1,0.5,0.1,0.7,0.2c0.2,0,0.4,0,0.8,0
		c1.4,0,2.5-0.4,3.1-1.3c0.6-0.8,1.6-3.2,3.1-7c0.6-1.6,1.4-3.7,2.3-6.3c1.2-3.4,2-5.6,2.4-6.6H579L575,127.7z"/>
	<path d="M776.3,128.7c-0.1,0-0.3,0-0.4,0c-0.3,0-0.6-0.1-0.7-0.2s-0.2-0.4-0.2-0.6v-8.6c0-1.4-0.5-2.5-1.6-3.1
		c-1.1-0.7-2.5-1-4.3-1c-1.5,0-2.8,0.4-4,1.1c-1.2,0.7-1.8,2-1.8,3.9h2.3c0.1-0.8,0.3-1.4,0.6-1.8c0.6-0.7,1.5-1.1,2.8-1.1
		c1.1,0,2,0.2,2.6,0.6c0.6,0.4,0.9,1,0.9,1.9c0,0.4-0.1,0.7-0.2,1c-0.2,0.4-0.6,0.7-1.2,0.7l-4,0.5c-1.4,0.2-2.5,0.6-3.4,1.4
		s-1.3,1.8-1.3,3.2c0,1.3,0.5,2.3,1.3,3.2c0.9,0.8,2,1.3,3.4,1.3c1.2,0,2.2-0.2,3.2-0.7c1-0.5,1.7-1.1,2.2-1.7
		c0.1,0.6,0.2,1,0.4,1.4c0.4,0.6,1,0.9,1.9,0.9c0.3,0,0.6,0,0.8,0c0.2,0,0.5-0.1,0.9-0.2v-1.9C776.6,128.7,776.4,128.7,776.3,128.7z
		 M772.5,124.9c0,1.5-0.7,2.7-2.1,3.3c-0.8,0.4-1.7,0.6-2.6,0.6c-0.7,0-1.4-0.2-1.9-0.6c-0.5-0.4-0.8-1-0.8-1.7c0-1,0.4-1.7,1.2-2.1
		c0.5-0.3,1.2-0.4,2.1-0.6l1.5-0.2c0.5,0,1-0.1,1.4-0.3c0.5-0.1,0.9-0.3,1.2-0.5V124.9z"/>
</g>
</svg>
