<?xml version="1.0" encoding="UTF-8"?>
<svg id="Layer_2" xmlns="http://www.w3.org/2000/svg" version="1.1" viewBox="0 0 810.6 680.3">
  <!-- Generator: Adobe Illustrator 29.8.4, SVG Export Plug-In . SVG Version: 2.1.1 Build 6)  -->
  <defs>
    <style>
      .st0 {
        fill: #0052a0;
      }

      .st1 {
        fill: #f6931d;
      }

      .st2 {
        fill: #669c42;
      }
    </style>
  </defs>
  <g id="d">
    <g id="e">
      <path class="st1" d="M256.4,430.2c21.8,0,39.5-17.6,39.5-39.3s-17.6-39.5-39.3-39.5-39.5,17.6-39.5,39.3h0c0,21.8,17.6,39.5,39.3,39.5Z"/>
      <polygon class="st1" points="334.2 392.3 261.6 467.9 256.6 467.9 186.5 395 127.2 395 222.9 497.3 222.9 680.3 294.4 680.3 294.4 499 362.5 426 362.5 419.6 334.2 392.3"/>
      <path class="st2" d="M550,430.2c21.8,0,39.5-17.7,39.5-39.5s-17.7-39.5-39.5-39.5-39.5,17.7-39.5,39.5h0c0,21.8,17.7,39.3,39.5,39.5Z"/>
      <polygon class="st2" points="621.1 394.8 551 467.6 546 467.6 473.3 392.2 445.8 418.7 445.8 426.6 513.3 498.8 513.3 680.2 584.8 680.2 584.8 497.2 680.3 394.8 621.1 394.8"/>
      <path class="st0" d="M405.3,0L0,388v70.4l201.4-194.5,161.1,155.7v260.6h83.4v-261.5l161.8-156.5,203,196.5v-70.4L405.3,0ZM572.6,228.3l-168.9,161.6-167.2-160,168.8-163.2,167.3,161.6h0ZM354.8,292.9c0,28.5,23.1,51.6,51.6,51.6s51.6-23.1,51.6-51.6-23.1-51.6-51.6-51.6h0c-28.5,0-51.6,23.1-51.6,51.6h0Z"/>
    </g>
  </g>
</svg>