<?xml version="1.0" encoding="UTF-8"?>
<svg id="Layer_2" data-name="Layer 2" xmlns="http://www.w3.org/2000/svg" viewBox="0 0 1920 834.38">
  <defs>
    <style>
      .cls-1 {
        fill: #0052a0;
      }

      .cls-2 {
        fill: #f6931d;
      }

      .cls-3 {
        fill: #669c42;
      }
    </style>
  </defs>
  <g id="Layer_1-2" data-name="Layer 1">
    <g id="b">
      <g id="c">
        <g id="d">
          <g id="e">
            <path class="cls-1" d="M925.61,448.95c-.27-3.92-3.11-12.16-8.51-25.95-8.78-22.43-14.46-28.52-27.03-28.52h-24.19v33.38c-.14,7.16.27,14.33,1.35,21.35h-24.19c.95-7.03,1.49-14.06,1.35-21.22v-87.84c0-7.03-.41-14.19-1.35-21.22,6.76.27,11.89.54,20.81.54h39.06c24.73,0,38.92,12.3,38.92,33.79.54,8.92-2.43,17.57-8.24,24.19-4.59,4.73-8.78,6.76-18.11,9.46,10.27,3.24,13.38,7.84,29.46,45.81,1.35,2.97,5.41,11.76,7.7,16.08h-26.76l-.27.14ZM898.58,375.97c5.68.14,11.22-1.89,15.41-5.81,3.65-3.78,5.54-9.05,5.27-14.33,0-11.76-6.62-17.7-20-17.7h-33.38v37.84h32.71Z"/>
            <path class="cls-1" d="M983.99,407.73c.81,8.92,2.3,13.51,6.08,18.24,10.14,11.22,27.43,12.16,38.65,2.03.41-.41.81-.68,1.22-1.08,2.16-2.43,3.78-5.27,4.73-8.51l19.19,6.22c-7.03,17.57-24.46,28.65-43.38,27.43-28.79,0-47.03-19.19-47.03-49.6s18.11-49.73,45.81-49.73c19.06,0,34.06,9.46,40.54,25.68,3.11,7.84,4.73,16.22,4.73,24.73,0,.27,0,.81.27,4.59h-70.82,0ZM1033.59,391.65c-.54-5.81-2.97-11.35-7.16-15.54-4.59-4.59-11.08-6.89-17.57-6.49-12.7,0-22.03,8.51-24.33,22.3h49.06v-.27Z"/>
            <path class="cls-1" d="M1085.21,452.73c5.54,8.38,15.14,13.11,25.27,12.43,12.57,0,22.3-4.46,26.62-12.16,2.84-4.87,3.92-10.54,4.19-21.62-7.43,10-19.46,15.54-31.89,14.87-25.95,0-42.44-17.7-42.44-45.54s17.03-46.22,43.38-46.22c14.46,0,24.06,4.32,31.08,14.33-.27-1.76-.41-3.51-.27-5.41v-7.43h21.76c-.81,6.76-1.22,13.51-1.22,20.41v54.46c0,19.6-4.19,32.03-13.65,40-8.11,6.62-21.62,10.41-38.38,10.41-19.06,0-29.6-4.32-40.81-16.89l16.22-11.35.13-.27ZM1095.75,423.54c4.59,4.59,10.81,7.3,17.3,7.43,9.19-.14,17.7-5,22.57-12.84,3.24-5.68,4.87-12.03,4.59-18.51.54-9.05-2.97-17.97-9.73-24.06-4.46-3.78-10-5.81-15.81-5.81-16.22,0-26.35,12.16-26.35,31.49-.54,8.11,2.16,16.22,7.43,22.3Z"/>
            <path class="cls-1" d="M1207.25,319.62v20.68h-23.92v-20.68h23.92ZM1207.25,355.7c-.95,7.03-1.35,14.19-1.22,21.35v50.81c0,7.16.27,14.19,1.22,21.35h-23.79c.95-7.03,1.35-14.06,1.35-21.22v-51.08c.14-7.03-.27-14.19-1.35-21.22,0,0,23.79,0,23.79,0Z"/>
            <path class="cls-1" d="M1227.38,448.95c.95-7.03,1.35-14.06,1.35-21.22v-51.08c0-7.03-.27-14.19-1.35-21.22h22.3v8.65c0,2.3,0,4.73-.27,7.03,9.87-12.7,18.51-17.3,33.25-17.3,12.57,0,21.76,4.05,27.57,12.03,3.92,5.41,5.54,11.89,5.54,22.7v39.06c-.14,7.03.27,14.19,1.35,21.22h-23.52c.81-7.03,1.22-14.06,1.08-21.22v-36.08c.41-4.87-.54-9.87-2.7-14.33-3.11-4.46-8.24-7.03-13.65-6.62-11.76,0-21.22,8.11-28.38,24.19v32.84c0,7.03.27,14.19,1.35,21.22h-23.52l-.41.14Z"/>
            <path class="cls-1" d="M1398.75,438.41c-4.59,5-10.68,8.65-17.3,10.27-5,1.35-10,1.89-15.14,1.89-19.87,0-31.89-10.27-31.89-27.3.27-11.76,7.57-22.16,18.51-26.35,10.54-4.46,22.57-6.08,45.81-6.49v-8.24c0-9.46-6.35-14.33-18.51-14.33-5.95-.14-11.89,1.49-16.89,4.73-3.38,2.57-5.68,6.22-6.49,10.41l-20.81-3.65c3.65-9.46,6.62-13.65,12.84-18.11,7.97-5.81,17.03-8.24,31.08-8.24,15.54,0,25,2.7,32.03,9.6,5.54,5.14,7.7,11.35,7.7,22.43v43.79c0,6.76.41,13.65,1.35,20.41h-22.03l-.27-10.68v-.14ZM1398.75,404.62c-31.08.68-43.25,5.95-43.25,18.51,0,7.7,5.68,12.43,14.87,12.43,8.38,0,16.35-2.97,22.57-8.65,3.92-3.78,5.95-8.92,5.81-14.33v-7.97Z"/>
            <path class="cls-1" d="M718.97,467.74c-56.09,0-92.03,38.52-92.03,98.66s35.95,99.33,91.76,99.33,92.03-39.87,92.03-100.14-35.95-97.84-91.76-97.84ZM718.97,626.26c-27.84,0-44.87-22.97-44.87-60.14s17.03-59.33,44.87-59.33,44.46,22.3,44.46,59.33-16.89,60.14-44.46,60.14Z"/>
            <path class="cls-1" d="M961.96,535.98c-11.89-11.62-28.25-17.57-48.25-17.57-17.03-.68-33.79,5.14-46.76,16.22,0-1.22.27-2.97.27-4.32v-7.7h-44.87c1.35,11.89,2.03,23.79,1.76,35.81v275.97h42.98v-180.42c-.27-3.24-.27-6.22-.27-8.24,4.59,4.46,9.87,7.97,15.68,10.54,9.73,3.92,20.27,5.95,30.81,5.95,17.43.54,34.33-5.95,46.9-17.97,12.97-12.97,19.87-31.89,19.87-55.14s-6.22-40.95-18.38-52.98l.27-.14ZM925.74,619.1c-5.95,5.68-13.92,8.78-22.3,8.65-20.54,0-35.81-16.22-35.81-37.57s15.54-37.44,34.46-37.44c21.49,0,33.79,13.51,33.79,36.62,0,12.84-3.78,23.38-10.14,29.46h0v.27Z"/>
            <path class="cls-1" d="M1079.27,624.5c-6.35,5.68-14.6,8.65-22.97,8.38-17.97,0-28.65-9.73-30.95-28.25h102.44c-.14-1.49-.27-2.97-.27-4.59-.27-10-1.35-20-3.38-29.87-7.97-33.92-32.84-53.25-68.38-53.25-43.52,0-72.44,29.6-72.44,75.01,0,22.57,7.43,41.89,20.68,55.54,12.97,12.97,30.54,19.33,52.84,19.33s40.81-6.62,53.79-19.33c6.62-6.62,11.76-14.6,15-23.52l-39.6-11.08c-1.08,4.46-3.38,8.51-6.89,11.62h.13ZM1055.89,550.85c15.68,0,25.54,7.7,28.65,22.3h-58.52c3.92-14.87,13.65-22.3,29.87-22.3Z"/>
            <path class="cls-1" d="M1233.06,661.4h47.44c-1.22-11.35-1.89-22.7-1.76-34.19v-57.17c0-17.97-3.92-29.19-12.97-38.25-8.38-8.51-20.95-12.7-36.62-12.7-17.7-.41-34.73,6.62-46.9,19.33,0-1.62.27-5,.27-6.35v-9.6h-45.27c1.49,11.35,2.03,22.84,1.76,34.46v70.14c.14,11.49-.41,22.97-1.76,34.46h47.17c-1.35-11.35-1.89-22.97-1.89-34.46v-45.95c9.87-15.95,21.22-23.92,33.92-23.92,5.81-.41,11.35,1.89,15,6.35,2.7,3.65,3.65,7.7,3.65,16.89v46.62c.14,11.49-.54,22.97-1.89,34.46l-.14-.14Z"/>
            <path class="cls-1" d="M1462.4,494.36c-15.27-14.87-37.84-22.57-65.82-22.57h-47.57c-18.92,0-24.6-.27-33.65-.68,1.62,11.08,2.3,22.16,2.03,33.38v124.06c.27,11.22-.41,22.3-1.76,33.38,9.6-.54,15.95-.68,33.38-.68h48.25c27.16,0,48.79-7.7,64.06-22.7,17.3-17.3,26.49-42.44,26.49-73.65s-8.24-54.19-25.14-70.55h-.27ZM1426.45,609.23c-8.24,8.24-18.51,12.03-33.38,12.03h-30.54v-109.74h29.87c16.49,0,27.3,3.65,35.27,11.62,8.92,8.92,13.24,22.97,13.24,42.44s-5.14,34.19-14.46,43.79h0v-.14Z"/>
            <path class="cls-1" d="M1568.08,517.2c-46.08,0-75.14,28.92-75.14,74.46s29.19,74.87,75.01,74.87,75.41-30,75.41-75.41-29.06-74.06-75.14-74.06l-.14.14ZM1568.08,632.07c-19.87,0-31.62-15.27-31.62-40.54s11.89-40.14,31.89-40.14,30.95,15,30.95,40.54-11.22,39.87-31.22,39.87h0v.27Z"/>
            <path class="cls-1" d="M1722.01,517.2c-45.95,0-75.14,28.92-75.14,74.46s29.19,74.87,75.01,74.87,75.41-30,75.41-75.41-29.19-74.06-75.14-74.06l-.14.14ZM1722.01,632.07c-19.87,0-31.62-15.27-31.62-40.54s11.89-40.14,31.89-40.14,30.95,15,30.95,40.54-11.35,39.87-31.22,39.87h0v.27Z"/>
            <path class="cls-1" d="M1897.43,519.63c-20.68,0-34.46,6.22-45.54,20.68v-17.97h-45.27c1.49,11.35,2.16,22.84,1.76,34.46v70.14c.14,11.49-.41,22.97-1.76,34.46h47.03c-1.35-11.35-2.03-22.7-1.76-34.19v-35.68c.95-10,2.57-14.87,6.76-20.27,6.49-8.24,16.62-12.84,27.16-12.3,7.97.14,15.81,1.62,23.24,4.32l10.95-40.95c-7.3-1.76-14.87-2.7-22.43-2.57l-.13-.14Z"/>
            <path class="cls-1" d="M916.42,768.43c0,3.24.95,6.35,2.84,8.92,3.78,4.19,9.19,6.49,14.87,5.95,10.14,0,16.22-4.59,16.22-12.3.14-3.78-1.76-7.43-5.14-9.32-2.97-1.62-3.65-1.76-17.7-5-5.54-.81-10.81-2.97-15.41-6.22-5.14-3.92-7.97-10-7.84-16.49,0-14.19,11.35-23.38,28.92-23.38,11.62,0,20.41,3.65,25.41,10.27,2.57,3.51,4.19,7.57,5,11.89l-14.6,1.76c-.27-2.7-1.35-5.27-3.11-7.43-3.24-3.38-7.97-5.27-12.7-4.87-8.92,0-14.87,4.46-14.87,11.08,0,4.32,2.84,8.11,6.89,9.32,4.73,1.62,9.46,2.84,14.33,3.65,5.95.95,11.49,3.11,16.62,6.22,5.68,4.05,8.78,10.68,8.51,17.57.27,6.35-2.03,12.7-6.35,17.3-5.41,5.14-13.51,7.7-24.33,7.7-7.43.27-14.87-1.62-21.35-5.27-4.19-2.84-7.3-6.89-8.92-11.62-.95-2.7-1.62-5.54-2.03-8.51l14.73-1.35v.14Z"/>
            <path class="cls-1" d="M973.85,764.51c0-18.92,11.89-31.08,30.41-31.08s30.14,12.03,30.14,30.81-11.89,31.35-30,31.35-30.41-12.03-30.41-31.08h-.14ZM986.96,764.51c0,12.57,6.49,20.27,17.03,20.27s17.16-7.7,17.16-20c0-13.11-6.22-20.68-17.03-20.68s-17.16,7.7-17.16,20.41Z"/>
            <path class="cls-1" d="M1085.08,754.65c-.68-2.3-1.76-4.32-3.11-6.22-2.57-3.11-6.49-4.87-10.54-4.73-10,0-16.22,7.84-16.22,20.41s6.35,20.54,16.62,20.54c4.59.14,9.05-1.89,11.76-5.68.95-1.49,1.76-3.24,2.03-5.14l12.57,2.57c-.95,3.11-2.3,6.08-4.32,8.65-5.27,6.89-13.65,10.68-22.3,10.27-17.97,0-29.6-12.16-29.6-30.95-.27-8.65,2.84-17.16,8.65-23.52,5.54-5.27,12.84-8.11,20.41-7.7,9.05-.41,17.57,3.78,22.84,11.08,1.49,2.3,2.84,4.73,3.65,7.43l-12.57,2.84.14.14Z"/>
            <path class="cls-1" d="M1123.32,712.62v12.97h-14.87v-12.97h14.87ZM1123.32,735.19c-.54,4.46-.81,8.92-.68,13.38v31.76c0,4.46.14,8.92.68,13.24h-14.87c.54-4.32.81-8.78.81-13.24v-31.89c0-4.46-.14-8.92-.81-13.24h14.87Z"/>
            <path class="cls-1" d="M1146.16,767.76c0,4.05,1.22,8.11,3.65,11.35,6.35,7.03,17.16,7.7,24.19,1.35.27-.27.54-.54.81-.68,1.35-1.49,2.3-3.38,2.97-5.27l12.03,3.65c-4.46,11.08-15.41,17.97-27.16,17.3-17.97,0-29.46-12.03-29.46-31.08s11.08-31.22,28.65-31.22c10.95-.54,21.22,5.95,25.41,16.08,1.89,5,2.97,10.14,2.97,15.54,0,0,0,.54.14,2.84h-44.19v.14ZM1177.25,757.76c-.27-3.65-1.89-7.16-4.46-9.73-2.97-2.84-7.03-4.32-11.08-4.05-7.97,0-14.6,5.95-15.27,13.92h30.95l-.14-.14Z"/>
            <path class="cls-1" d="M1221.98,719.51c-.41,4.19-.68,8.38-.68,12.57v3.11h4.32c3.51,0,6.89,0,10.27-.68v12.03c-3.24-.54-6.62-.68-10-.54h-4.59v31.49c0,5,1.76,6.76,6.76,6.76,2.7,0,5.27-.81,7.43-2.16l1.76,10.81c-4.05,1.62-8.38,2.3-12.7,2.16-11.76,0-16.35-4.19-16.35-14.87v-34.19h-3.92c-2.97,0-6.08.14-9.05.54v-12.03c2.97.54,6.08.68,9.19.68h3.65v-3.11c0-4.19-.27-8.38-.68-12.57h14.73-.14Z"/>
            <path class="cls-1" d="M1245.09,747.76c-4.46-10.14-4.59-10.41-5.81-12.57h15.41c.81,4.05,2.03,8.11,3.65,11.89l12.43,28.92,11.08-28.79c1.76-3.92,2.97-7.84,3.92-12.03h15.14c-.54,1.35-2.43,5.54-5.54,12.57l-23.24,54.46c-3.24,7.7-9.19,11.35-18.79,11.35-3.65,0-7.16-.41-10.68-1.22l2.3-11.62c2.16,1.08,4.59,1.62,7.16,1.76,3.38,0,6.62-1.89,7.97-5.14l3.51-7.84-18.79-41.76h.27Z"/>
            <path class="cls-1" d="M1358.88,712.62c-.68,4.32-.95,8.78-.81,13.11v54.87c0,4.32.14,8.78.81,13.11h-15.41c.68-4.32.95-8.78.81-13.11v-54.87c0-4.32-.14-8.78-.81-13.11h15.41Z"/>
            <path class="cls-1" d="M1372.39,793.57c.68-4.32.95-8.78.81-13.24v-31.89c0-4.46-.14-8.92-.81-13.24h13.92v5.41c0,1.49,0,2.97-.14,4.32,6.22-7.97,11.62-10.81,20.81-10.81,6.62-.54,13.11,2.16,17.3,7.43,2.7,4.19,3.92,9.19,3.51,14.19v24.46c0,4.46.14,8.92.81,13.24h-14.87c.54-4.46.81-8.78.68-13.24v-22.57c.27-3.11-.27-6.22-1.76-8.92-1.89-2.84-5.14-4.46-8.51-4.19-7.43,0-13.38,5.14-17.84,15.14v20.54c0,4.46.27,8.78.81,13.24h-14.6l-.14.14Z"/>
            <path class="cls-1" d="M1481.46,754.65c-.68-2.3-1.76-4.32-3.11-6.22-2.57-3.11-6.49-4.87-10.54-4.73-10,0-16.22,7.84-16.22,20.41s6.35,20.54,16.62,20.54c4.59.27,9.05-1.89,11.76-5.68,1.08-1.49,1.76-3.24,2.03-5.14l12.7,2.57c-.95,3.11-2.43,6.08-4.32,8.65-5.27,6.89-13.65,10.68-22.3,10.27-17.84,0-29.6-12.16-29.6-30.95-.27-8.65,2.84-17.16,8.65-23.52,5.54-5.27,12.84-8.11,20.41-7.7,9.05-.41,17.57,3.78,22.84,11.08,1.49,2.3,2.84,4.73,3.65,7.43l-12.57,2.84v.14Z"/>
            <path class="cls-1" d="M1504.57,793.57v-14.87h14.87v14.87h-14.87Z"/>
            <path class="cls-2" d="M256.37,430.17c21.76,0,39.46-17.57,39.46-39.33s-17.57-39.46-39.33-39.46-39.46,17.57-39.46,39.33h0c0,21.76,17.57,39.46,39.33,39.46Z"/>
            <polygon class="cls-2" points="334.21 392.32 261.64 467.87 256.64 467.87 186.5 395.03 127.17 395.03 222.85 497.33 222.85 680.32 294.35 680.32 294.35 498.95 362.46 425.98 362.46 419.62 334.21 392.32"/>
            <path class="cls-3" d="M550.04,430.17c21.76,0,39.46-17.7,39.46-39.46s-17.7-39.46-39.46-39.46-39.46,17.7-39.46,39.46h0c0,21.76,17.7,39.33,39.46,39.46Z"/>
            <polygon class="cls-3" points="621.12 394.76 550.98 467.6 545.98 467.6 473.28 392.19 445.84 418.68 445.84 426.65 513.28 498.82 513.28 680.18 584.77 680.18 584.77 497.2 680.32 394.76 621.12 394.76"/>
            <path class="cls-1" d="M405.3,0L0,388v70.41l201.37-194.47,161.09,155.69v260.56h83.38v-261.5l161.77-156.5,202.99,196.5v-70.41L405.3,0ZM572.61,228.26l-168.93,161.63-167.17-160.01,168.8-163.25,167.31,161.63ZM354.75,292.86c0,28.52,23.11,51.63,51.63,51.63s51.63-23.11,51.63-51.63-23.11-51.63-51.63-51.63h0c-28.52,0-51.63,23.11-51.63,51.63h0Z"/>
          </g>
        </g>
      </g>
    </g>
  </g>
</svg>