<?xml version="1.0" encoding="utf-8"?>
<!-- Generator: Adobe Illustrator 29.8.4, SVG Export Plug-In . SVG Version: 9.03 Build 0)  -->
<svg version="1.0" id="Layer_1" xmlns="http://www.w3.org/2000/svg" xmlns:xlink="http://www.w3.org/1999/xlink" x="0px" y="0px"
	 viewBox="0 0 134.3 37.1" style="enable-background:new 0 0 134.3 37.1;" xml:space="preserve">
<style type="text/css">
	.st0{fill:#006F38;}
	.st1{fill:#FFEC18;}
</style>
<g>
</g>
<g>
	<path class="st0" d="M14.8,8.7c-0.7-0.6-2.5-1.3-4.5-1.3c-4.1,0-7.3,2.8-7.3,6.6c0,2.4,1.4,4.3,4.6,6c2.4,1.3,3.4,2.7,3.4,4.8
		c0,3.4-2.8,5.1-5.6,5.1c-1.6,0-3.2-0.5-4.4-1.4l-0.2-0.2L0,29.8l0.1,0.1c0.9,0.9,3.2,1.6,5.1,1.6c5.5,0,7.9-3.6,7.9-6.9
		c0-2.8-1.3-4.8-4.4-6.4c-2.8-1.5-3.6-2.7-3.6-4.7s1.9-4.4,5-4.4c1.3,0,2.6,0.4,3.7,1.1l0.2,0.1l0.9-1.6L14.8,8.7L14.8,8.7z"/>
	<path class="st0" d="M30.1,14.5l-0.2-0.1C28.8,14.2,27.2,14,26,14c-6.8,0-11.4,6.3-11.4,12.2c0,3.2,2,5.5,4.8,5.5
		c2.7,0,4.9-1.5,6.6-4.4c-0.2,1.9-0.3,3.1-0.3,3.8l0,0.2h1.9l0-0.2c-0.1-2,0.2-4.9,0.7-7.7L30.1,14.5L30.1,14.5z M19.7,29.8
		c-2.1,0-3.1-1.3-3.1-3.9c0-5.5,4.2-10.1,9-10.1c0.9,0,1.6,0.1,2.1,0.2l-1,5.5C25.9,25.9,22.6,29.8,19.7,29.8L19.7,29.8z"/>
	<path class="st0" d="M37.6,14c-3,0-5.4,2.2-5.4,4.9c0,1.2,0.5,2.9,2.8,4.3c1.7,1,2.3,1.9,2.3,3.4c0,1.8-1.5,3.2-3.6,3.2
		c-1.2,0-2.3-0.5-3-0.9l-0.2-0.2l-0.8,1.7l0.1,0.1c0.7,0.5,2.1,1.1,3.7,1.1c2.9,0,5.7-1.9,5.7-5.4c0-1.8-1-3.3-2.8-4.4
		c-1.5-0.9-2.3-1.7-2.3-3.1c0-1.6,1.4-2.9,3.2-2.9c1,0,1.9,0.4,2.4,0.8l0.2,0.2l0.8-1.8l-0.1-0.1C40.2,14.4,38.9,14,37.6,14L37.6,14
		z"/>
	<path class="st0" d="M55.6,14.3h-2.7l-6.9,6.3c-0.2,0.2-0.7,0.6-1.1,1.1l3-15.3h-2l-4.8,24.8h2l1.3-7l2-1.7l4.6,8.7h2.2l-5.2-9.9
		L55.6,14.3L55.6,14.3z"/>
	<path class="st0" d="M54.6,27.4c0.8,0.3,1.7,0.4,2.8,0.4c2.3,0,3.8-1.2,4.4-4.9l2.9-15.1h4l-3,15.5c-1.1,5.7-3.5,7.9-8.3,7.9
		c-1.4,0-3-0.3-3.7-0.6L54.6,27.4L54.6,27.4z"/>
	<path class="st0" d="M83.7,20.9c0,5.7-4,10.5-9.7,10.5c-4.2,0-6.9-2.9-6.9-6.9c0-5.7,4-10.5,9.7-10.5C81.3,14,83.7,17.2,83.7,20.9
		L83.7,20.9z M71.3,24.4c0,2.3,1.2,3.9,3.3,3.9c3,0,5-4.1,5-7.4c0-1.7-0.8-3.8-3.2-3.8C73.1,17,71.3,21.3,71.3,24.4z"/>
	<path class="st0" d="M91.9,6.7l-2.1,10.1h0.1c1.3-1.8,3.3-2.8,5.5-2.8c3.6,0,5.1,2.9,5.1,5.9c0,5.3-3.7,11.5-10.8,11.5
		c-3.5,0-5.6-1.5-5.6-4.5c0-1,0.1-2,0.3-2.9l3.5-17.3L91.9,6.7L91.9,6.7z M88.4,24.2c-0.1,0.6-0.2,1.2-0.2,2c0,1.4,0.8,2.1,2.2,2.1
		c3.5,0,5.8-4.5,5.8-7.7c0-1.8-0.8-3.4-2.7-3.4c-2.1,0-4.2,2.1-4.9,5.5L88.4,24.2L88.4,24.2z"/>
	<path class="st0" d="M100.5,27.3c0.9,0.5,2.5,1.1,4,1.1c1.6,0,2.6-1,2.6-2.1s-0.6-1.7-2.2-2.6c-1.9-1-3.3-2.4-3.3-4.3
		c0-3.2,2.8-5.5,6.8-5.5c1.8,0,3.2,0.4,4,0.9l-1,2.9c-0.6-0.3-1.8-0.8-3.1-0.8c-1.5,0-2.5,0.8-2.5,1.9c0,0.9,0.8,1.6,2.2,2.3
		c1.8,1,3.5,2.4,3.5,4.5c0,3.7-3.1,5.7-7.1,5.7c-2,0-3.8-0.5-4.7-1.2L100.5,27.3L100.5,27.3z"/>
	<path class="st0" d="M123.3,6.6h-2.3c0,0-3.5,17.4-3.8,18.9C121.1,18.8,122.8,12.2,123.3,6.6"/>
	<g>
		<path class="st0" d="M122.3,31.1c4.3-2.8,7.8-5.7,11-9.2l1,9.2H122.3"/>
	</g>
	<path class="st1" d="M110.7,37.1c10.6-8.5,17.9-17.6,21.5-25.4c0.2,2,0.6,5.8,0.8,7.6C127.6,25.8,120.8,31,110.7,37.1 M129.3,0
		l-4.5,6.4c-0.8,7.7-3.5,17.8-11.6,26.7c5.5-5.1,9.9-10.3,13.1-15.3c0.2-0.2,0.3-0.5,0.5-0.7l0,0c1.7-2.7,2.8-5.1,3.6-6.8
		c0.5-1.2,0.9-2.4,1.2-3.6L129.3,0L129.3,0z"/>
</g>
</svg>
